<mxfile host="app.diagrams.net" modified="2023-08-23T02:24:03.768Z" agent="Mozilla/5.0 (Macintosh; Intel Mac OS X 10_15_7) AppleWebKit/537.36 (KHTML, like Gecko) Chrome/116.0.0.0 Safari/537.36" etag="HCqwZKbOKzOoYjS6BNW3" version="21.6.8" type="github" pages="3">
  <diagram name="第 1 页" id="KPznpjY8Kz4asvmCAZzC">
    <mxGraphModel dx="1207" dy="811" grid="0" gridSize="10" guides="1" tooltips="1" connect="1" arrows="1" fold="1" page="1" pageScale="1" pageWidth="10000" pageHeight="10000" math="0" shadow="0">
      <root>
        <mxCell id="0" />
        <mxCell id="1" parent="0" />
        <mxCell id="bwINNmz4oi5txDyVYaUs-162" value="" style="rounded=1;whiteSpace=wrap;html=1;fillColor=#e1d5e7;strokeColor=#9673a6;" parent="1" vertex="1">
          <mxGeometry x="650" y="1739" width="500" height="225" as="geometry" />
        </mxCell>
        <mxCell id="bwINNmz4oi5txDyVYaUs-161" value="" style="rounded=1;whiteSpace=wrap;html=1;fillColor=#e1d5e7;strokeColor=#9673a6;" parent="1" vertex="1">
          <mxGeometry x="506" y="1739" width="135" height="220" as="geometry" />
        </mxCell>
        <mxCell id="bwINNmz4oi5txDyVYaUs-2" value="功能重构" style="swimlane;whiteSpace=wrap;html=1;fillColor=#d5e8d4;strokeColor=#82b366;startSize=23;" parent="1" vertex="1">
          <mxGeometry x="310" y="150" width="460" height="270" as="geometry" />
        </mxCell>
        <mxCell id="bwINNmz4oi5txDyVYaUs-14" style="edgeStyle=orthogonalEdgeStyle;rounded=0;orthogonalLoop=1;jettySize=auto;html=1;exitX=0.5;exitY=0;exitDx=0;exitDy=0;entryX=0;entryY=0.5;entryDx=0;entryDy=0;" parent="bwINNmz4oi5txDyVYaUs-2" source="bwINNmz4oi5txDyVYaUs-11" target="bwINNmz4oi5txDyVYaUs-12" edge="1">
          <mxGeometry relative="1" as="geometry" />
        </mxCell>
        <mxCell id="bwINNmz4oi5txDyVYaUs-16" value="是" style="edgeLabel;html=1;align=center;verticalAlign=middle;resizable=0;points=[];" parent="bwINNmz4oi5txDyVYaUs-14" vertex="1" connectable="0">
          <mxGeometry x="0.1733" relative="1" as="geometry">
            <mxPoint as="offset" />
          </mxGeometry>
        </mxCell>
        <mxCell id="bwINNmz4oi5txDyVYaUs-15" style="edgeStyle=orthogonalEdgeStyle;rounded=0;orthogonalLoop=1;jettySize=auto;html=1;exitX=0.5;exitY=1;exitDx=0;exitDy=0;entryX=0;entryY=0.5;entryDx=0;entryDy=0;" parent="bwINNmz4oi5txDyVYaUs-2" source="bwINNmz4oi5txDyVYaUs-11" target="bwINNmz4oi5txDyVYaUs-13" edge="1">
          <mxGeometry relative="1" as="geometry" />
        </mxCell>
        <mxCell id="bwINNmz4oi5txDyVYaUs-17" value="否" style="edgeLabel;html=1;align=center;verticalAlign=middle;resizable=0;points=[];" parent="bwINNmz4oi5txDyVYaUs-15" vertex="1" connectable="0">
          <mxGeometry x="0.2" y="2" relative="1" as="geometry">
            <mxPoint as="offset" />
          </mxGeometry>
        </mxCell>
        <mxCell id="bwINNmz4oi5txDyVYaUs-11" value="是否灰度" style="rhombus;whiteSpace=wrap;html=1;fillColor=#d5e8d4;strokeColor=#82b366;" parent="bwINNmz4oi5txDyVYaUs-2" vertex="1">
          <mxGeometry x="140" y="120" width="80" height="80" as="geometry" />
        </mxCell>
        <mxCell id="bwINNmz4oi5txDyVYaUs-12" value="重构功能" style="rounded=0;whiteSpace=wrap;html=1;fillColor=#d5e8d4;strokeColor=#82b366;" parent="bwINNmz4oi5txDyVYaUs-2" vertex="1">
          <mxGeometry x="290" y="60" width="110" height="40" as="geometry" />
        </mxCell>
        <mxCell id="bwINNmz4oi5txDyVYaUs-13" value="原功能" style="rounded=0;whiteSpace=wrap;html=1;fillColor=#d5e8d4;strokeColor=#82b366;" parent="bwINNmz4oi5txDyVYaUs-2" vertex="1">
          <mxGeometry x="290" y="210" width="110" height="40" as="geometry" />
        </mxCell>
        <mxCell id="bwINNmz4oi5txDyVYaUs-20" value="" style="edgeStyle=orthogonalEdgeStyle;rounded=0;orthogonalLoop=1;jettySize=auto;html=1;entryX=0;entryY=0.5;entryDx=0;entryDy=0;" parent="bwINNmz4oi5txDyVYaUs-2" target="bwINNmz4oi5txDyVYaUs-11" edge="1">
          <mxGeometry relative="1" as="geometry">
            <mxPoint x="50" y="160" as="sourcePoint" />
          </mxGeometry>
        </mxCell>
        <mxCell id="bwINNmz4oi5txDyVYaUs-21" value="用户" style="shape=umlActor;verticalLabelPosition=bottom;verticalAlign=top;html=1;outlineConnect=0;" parent="bwINNmz4oi5txDyVYaUs-2" vertex="1">
          <mxGeometry x="20" y="130" width="30" height="60" as="geometry" />
        </mxCell>
        <mxCell id="bwINNmz4oi5txDyVYaUs-24" value="新功能上线" style="swimlane;whiteSpace=wrap;html=1;fillColor=#d5e8d4;strokeColor=#82b366;startSize=23;" parent="1" vertex="1">
          <mxGeometry x="800" y="150" width="440" height="270" as="geometry" />
        </mxCell>
        <mxCell id="bwINNmz4oi5txDyVYaUs-34" value="是" style="edgeStyle=orthogonalEdgeStyle;rounded=0;orthogonalLoop=1;jettySize=auto;html=1;exitX=1;exitY=0.5;exitDx=0;exitDy=0;entryX=0;entryY=0.5;entryDx=0;entryDy=0;" parent="bwINNmz4oi5txDyVYaUs-24" source="bwINNmz4oi5txDyVYaUs-29" target="bwINNmz4oi5txDyVYaUs-30" edge="1">
          <mxGeometry relative="1" as="geometry" />
        </mxCell>
        <mxCell id="bwINNmz4oi5txDyVYaUs-29" value="是否灰度" style="rhombus;whiteSpace=wrap;html=1;fillColor=#d5e8d4;strokeColor=#82b366;" parent="bwINNmz4oi5txDyVYaUs-24" vertex="1">
          <mxGeometry x="140" y="120" width="80" height="80" as="geometry" />
        </mxCell>
        <mxCell id="bwINNmz4oi5txDyVYaUs-30" value="新功能" style="rounded=0;whiteSpace=wrap;html=1;fillColor=#d5e8d4;strokeColor=#82b366;" parent="bwINNmz4oi5txDyVYaUs-24" vertex="1">
          <mxGeometry x="310" y="140" width="110" height="40" as="geometry" />
        </mxCell>
        <mxCell id="bwINNmz4oi5txDyVYaUs-32" value="" style="edgeStyle=orthogonalEdgeStyle;rounded=0;orthogonalLoop=1;jettySize=auto;html=1;entryX=0;entryY=0.5;entryDx=0;entryDy=0;" parent="bwINNmz4oi5txDyVYaUs-24" target="bwINNmz4oi5txDyVYaUs-29" edge="1">
          <mxGeometry relative="1" as="geometry">
            <mxPoint x="50" y="160" as="sourcePoint" />
          </mxGeometry>
        </mxCell>
        <mxCell id="bwINNmz4oi5txDyVYaUs-33" value="用户" style="shape=umlActor;verticalLabelPosition=bottom;verticalAlign=top;html=1;outlineConnect=0;" parent="bwINNmz4oi5txDyVYaUs-24" vertex="1">
          <mxGeometry x="20" y="130" width="30" height="60" as="geometry" />
        </mxCell>
        <mxCell id="bwINNmz4oi5txDyVYaUs-37" value="研发" style="shape=umlActor;verticalLabelPosition=bottom;verticalAlign=top;html=1;outlineConnect=0;" parent="1" vertex="1">
          <mxGeometry x="628" y="554" width="25" height="38" as="geometry" />
        </mxCell>
        <mxCell id="bwINNmz4oi5txDyVYaUs-38" value="" style="shape=flexArrow;endArrow=classic;html=1;rounded=0;" parent="1" edge="1">
          <mxGeometry width="50" height="50" relative="1" as="geometry">
            <mxPoint x="641" y="619" as="sourcePoint" />
            <mxPoint x="641" y="653" as="targetPoint" />
          </mxGeometry>
        </mxCell>
        <mxCell id="bwINNmz4oi5txDyVYaUs-40" value="" style="rounded=1;whiteSpace=wrap;html=1;fillColor=#dae8fc;strokeColor=#6c8ebf;" parent="1" vertex="1">
          <mxGeometry x="695" y="559" width="292" height="44" as="geometry" />
        </mxCell>
        <mxCell id="bwINNmz4oi5txDyVYaUs-41" value="mmc-auth" style="rounded=1;whiteSpace=wrap;html=1;fillColor=#d5e8d4;strokeColor=#82b366;" parent="1" vertex="1">
          <mxGeometry x="710" y="565" width="78" height="31" as="geometry" />
        </mxCell>
        <mxCell id="bwINNmz4oi5txDyVYaUs-42" value="mmc-bill" style="rounded=1;whiteSpace=wrap;html=1;fillColor=#d5e8d4;strokeColor=#82b366;" parent="1" vertex="1">
          <mxGeometry x="804" y="565" width="78" height="31" as="geometry" />
        </mxCell>
        <mxCell id="bwINNmz4oi5txDyVYaUs-43" value="mmc-funds" style="rounded=1;whiteSpace=wrap;html=1;fillColor=#d5e8d4;strokeColor=#82b366;" parent="1" vertex="1">
          <mxGeometry x="898" y="565" width="78" height="31" as="geometry" />
        </mxCell>
        <mxCell id="bwINNmz4oi5txDyVYaUs-45" value="" style="shape=flexArrow;endArrow=classic;html=1;rounded=0;" parent="1" edge="1">
          <mxGeometry width="50" height="50" relative="1" as="geometry">
            <mxPoint x="784" y="616" as="sourcePoint" />
            <mxPoint x="784" y="651" as="targetPoint" />
          </mxGeometry>
        </mxCell>
        <mxCell id="bwINNmz4oi5txDyVYaUs-46" value="" style="shape=flexArrow;endArrow=classic;html=1;rounded=0;" parent="1" edge="1">
          <mxGeometry width="50" height="50" relative="1" as="geometry">
            <mxPoint x="879" y="651" as="sourcePoint" />
            <mxPoint x="879" y="614" as="targetPoint" />
          </mxGeometry>
        </mxCell>
        <mxCell id="bwINNmz4oi5txDyVYaUs-78" value="" style="endArrow=none;dashed=1;html=1;rounded=0;" parent="1" edge="1">
          <mxGeometry width="50" height="50" relative="1" as="geometry">
            <mxPoint x="583" y="714" as="sourcePoint" />
            <mxPoint x="581" y="713.3267813267814" as="targetPoint" />
          </mxGeometry>
        </mxCell>
        <mxCell id="bwINNmz4oi5txDyVYaUs-81" value="" style="rounded=0;whiteSpace=wrap;html=1;fillColor=#f5f5f5;fontColor=#333333;strokeColor=#666666;" parent="1" vertex="1">
          <mxGeometry x="575" y="662" width="419" height="196" as="geometry" />
        </mxCell>
        <mxCell id="bwINNmz4oi5txDyVYaUs-82" value="" style="endArrow=none;dashed=1;html=1;rounded=0;exitX=0;exitY=0.25;exitDx=0;exitDy=0;entryX=1;entryY=0.25;entryDx=0;entryDy=0;" parent="1" source="bwINNmz4oi5txDyVYaUs-81" target="bwINNmz4oi5txDyVYaUs-81" edge="1">
          <mxGeometry width="50" height="50" relative="1" as="geometry">
            <mxPoint x="613" y="728" as="sourcePoint" />
            <mxPoint x="663" y="678" as="targetPoint" />
          </mxGeometry>
        </mxCell>
        <mxCell id="bwINNmz4oi5txDyVYaUs-83" value="" style="endArrow=none;dashed=1;html=1;rounded=0;exitX=0;exitY=0.5;exitDx=0;exitDy=0;entryX=1;entryY=0.5;entryDx=0;entryDy=0;" parent="1" source="bwINNmz4oi5txDyVYaUs-81" target="bwINNmz4oi5txDyVYaUs-81" edge="1">
          <mxGeometry width="50" height="50" relative="1" as="geometry">
            <mxPoint x="585" y="744" as="sourcePoint" />
            <mxPoint x="1004" y="744" as="targetPoint" />
          </mxGeometry>
        </mxCell>
        <mxCell id="bwINNmz4oi5txDyVYaUs-85" value="" style="endArrow=none;dashed=1;html=1;rounded=0;exitX=0;exitY=0.75;exitDx=0;exitDy=0;entryX=1;entryY=0.75;entryDx=0;entryDy=0;" parent="1" source="bwINNmz4oi5txDyVYaUs-81" target="bwINNmz4oi5txDyVYaUs-81" edge="1">
          <mxGeometry width="50" height="50" relative="1" as="geometry">
            <mxPoint x="585" y="817" as="sourcePoint" />
            <mxPoint x="1004" y="817" as="targetPoint" />
          </mxGeometry>
        </mxCell>
        <mxCell id="bwINNmz4oi5txDyVYaUs-89" value="服务端" style="rounded=1;whiteSpace=wrap;html=1;fillColor=#ffe6cc;strokeColor=#d79b00;" parent="1" vertex="1">
          <mxGeometry x="808" y="671" width="163" height="34" as="geometry" />
        </mxCell>
        <mxCell id="bwINNmz4oi5txDyVYaUs-90" value="omc管理端" style="rounded=1;whiteSpace=wrap;html=1;fillColor=#ffe6cc;strokeColor=#d79b00;" parent="1" vertex="1">
          <mxGeometry x="596" y="671" width="163" height="34" as="geometry" />
        </mxCell>
        <mxCell id="bwINNmz4oi5txDyVYaUs-91" value="HTTP" style="rounded=1;whiteSpace=wrap;html=1;fillColor=#f8cecc;strokeColor=#b85450;" parent="1" vertex="1">
          <mxGeometry x="594" y="718" width="163" height="34" as="geometry" />
        </mxCell>
        <mxCell id="bwINNmz4oi5txDyVYaUs-92" value="DUBBO" style="rounded=1;whiteSpace=wrap;html=1;fillColor=#f8cecc;strokeColor=#b85450;" parent="1" vertex="1">
          <mxGeometry x="808" y="718" width="163" height="34" as="geometry" />
        </mxCell>
        <mxCell id="bwINNmz4oi5txDyVYaUs-93" value="路由配置" style="rounded=1;whiteSpace=wrap;html=1;fillColor=#dae8fc;strokeColor=#6c8ebf;" parent="1" vertex="1">
          <mxGeometry x="592" y="766" width="118" height="34" as="geometry" />
        </mxCell>
        <mxCell id="bwINNmz4oi5txDyVYaUs-97" value="策略配置" style="rounded=1;whiteSpace=wrap;html=1;fillColor=#dae8fc;strokeColor=#6c8ebf;" parent="1" vertex="1">
          <mxGeometry x="725.5" y="766" width="118" height="34" as="geometry" />
        </mxCell>
        <mxCell id="bwINNmz4oi5txDyVYaUs-98" value="路由计算" style="rounded=1;whiteSpace=wrap;html=1;fillColor=#dae8fc;strokeColor=#6c8ebf;" parent="1" vertex="1">
          <mxGeometry x="858" y="766" width="118" height="34" as="geometry" />
        </mxCell>
        <mxCell id="bwINNmz4oi5txDyVYaUs-99" value="redis" style="rounded=1;whiteSpace=wrap;html=1;fillColor=#e1d5e7;strokeColor=#9673a6;" parent="1" vertex="1">
          <mxGeometry x="594" y="818" width="163" height="34" as="geometry" />
        </mxCell>
        <mxCell id="bwINNmz4oi5txDyVYaUs-100" value="mysql" style="rounded=1;whiteSpace=wrap;html=1;fillColor=#e1d5e7;strokeColor=#9673a6;" parent="1" vertex="1">
          <mxGeometry x="808" y="818" width="163" height="34" as="geometry" />
        </mxCell>
        <mxCell id="bwINNmz4oi5txDyVYaUs-107" value="" style="rounded=1;whiteSpace=wrap;html=1;fillColor=#f5f5f5;fontColor=#333333;strokeColor=#666666;" parent="1" vertex="1">
          <mxGeometry x="284" y="1061" width="139" height="357" as="geometry" />
        </mxCell>
        <mxCell id="bwINNmz4oi5txDyVYaUs-108" value="" style="group" parent="1" vertex="1" connectable="0">
          <mxGeometry x="306" y="1072" width="95" height="337" as="geometry" />
        </mxCell>
        <mxCell id="bwINNmz4oi5txDyVYaUs-47" value="配置路由策略" style="rounded=1;whiteSpace=wrap;html=1;fillColor=#dae8fc;strokeColor=#6c8ebf;" parent="bwINNmz4oi5txDyVYaUs-108" vertex="1">
          <mxGeometry y="59" width="93" height="36" as="geometry" />
        </mxCell>
        <mxCell id="bwINNmz4oi5txDyVYaUs-48" value="创建路由配置" style="rounded=1;whiteSpace=wrap;html=1;fillColor=#dae8fc;strokeColor=#6c8ebf;" parent="bwINNmz4oi5txDyVYaUs-108" vertex="1">
          <mxGeometry y="121" width="93" height="36" as="geometry" />
        </mxCell>
        <mxCell id="bwINNmz4oi5txDyVYaUs-51" style="edgeStyle=orthogonalEdgeStyle;rounded=0;orthogonalLoop=1;jettySize=auto;html=1;exitX=0.5;exitY=1;exitDx=0;exitDy=0;entryX=0.5;entryY=0;entryDx=0;entryDy=0;" parent="bwINNmz4oi5txDyVYaUs-108" source="bwINNmz4oi5txDyVYaUs-47" target="bwINNmz4oi5txDyVYaUs-48" edge="1">
          <mxGeometry relative="1" as="geometry" />
        </mxCell>
        <mxCell id="bwINNmz4oi5txDyVYaUs-49" value="配置路由策略值" style="rounded=1;whiteSpace=wrap;html=1;fillColor=#dae8fc;strokeColor=#6c8ebf;" parent="bwINNmz4oi5txDyVYaUs-108" vertex="1">
          <mxGeometry y="182" width="93" height="36" as="geometry" />
        </mxCell>
        <mxCell id="bwINNmz4oi5txDyVYaUs-52" style="edgeStyle=orthogonalEdgeStyle;rounded=0;orthogonalLoop=1;jettySize=auto;html=1;exitX=0.5;exitY=1;exitDx=0;exitDy=0;" parent="bwINNmz4oi5txDyVYaUs-108" source="bwINNmz4oi5txDyVYaUs-48" target="bwINNmz4oi5txDyVYaUs-49" edge="1">
          <mxGeometry relative="1" as="geometry" />
        </mxCell>
        <mxCell id="bwINNmz4oi5txDyVYaUs-50" value="配置维度路由值" style="rounded=1;whiteSpace=wrap;html=1;fillColor=#dae8fc;strokeColor=#6c8ebf;" parent="bwINNmz4oi5txDyVYaUs-108" vertex="1">
          <mxGeometry x="2" y="243" width="93" height="36" as="geometry" />
        </mxCell>
        <mxCell id="bwINNmz4oi5txDyVYaUs-53" style="edgeStyle=orthogonalEdgeStyle;rounded=0;orthogonalLoop=1;jettySize=auto;html=1;exitX=0.5;exitY=1;exitDx=0;exitDy=0;entryX=0.5;entryY=0;entryDx=0;entryDy=0;" parent="bwINNmz4oi5txDyVYaUs-108" source="bwINNmz4oi5txDyVYaUs-49" target="bwINNmz4oi5txDyVYaUs-50" edge="1">
          <mxGeometry relative="1" as="geometry" />
        </mxCell>
        <mxCell id="bwINNmz4oi5txDyVYaUs-104" style="edgeStyle=orthogonalEdgeStyle;rounded=0;orthogonalLoop=1;jettySize=auto;html=1;exitX=0.5;exitY=1;exitDx=0;exitDy=0;" parent="bwINNmz4oi5txDyVYaUs-108" source="bwINNmz4oi5txDyVYaUs-103" target="bwINNmz4oi5txDyVYaUs-47" edge="1">
          <mxGeometry relative="1" as="geometry" />
        </mxCell>
        <mxCell id="bwINNmz4oi5txDyVYaUs-103" value="开始" style="ellipse;whiteSpace=wrap;html=1;fillColor=#dae8fc;strokeColor=#6c8ebf;" parent="bwINNmz4oi5txDyVYaUs-108" vertex="1">
          <mxGeometry x="13" width="67" height="33" as="geometry" />
        </mxCell>
        <mxCell id="bwINNmz4oi5txDyVYaUs-105" value="结束" style="ellipse;whiteSpace=wrap;html=1;fillColor=#dae8fc;strokeColor=#6c8ebf;" parent="bwINNmz4oi5txDyVYaUs-108" vertex="1">
          <mxGeometry x="15" y="304" width="67" height="33" as="geometry" />
        </mxCell>
        <mxCell id="bwINNmz4oi5txDyVYaUs-106" style="edgeStyle=orthogonalEdgeStyle;rounded=0;orthogonalLoop=1;jettySize=auto;html=1;exitX=0.5;exitY=1;exitDx=0;exitDy=0;entryX=0.5;entryY=0;entryDx=0;entryDy=0;" parent="bwINNmz4oi5txDyVYaUs-108" source="bwINNmz4oi5txDyVYaUs-50" target="bwINNmz4oi5txDyVYaUs-105" edge="1">
          <mxGeometry relative="1" as="geometry" />
        </mxCell>
        <mxCell id="bwINNmz4oi5txDyVYaUs-109" value="OMC管理端" style="text;html=1;strokeColor=none;fillColor=none;align=center;verticalAlign=middle;whiteSpace=wrap;rounded=0;" parent="1" vertex="1">
          <mxGeometry x="319" y="1031" width="67" height="30" as="geometry" />
        </mxCell>
        <mxCell id="bwINNmz4oi5txDyVYaUs-60" value="获取路由配置" style="rounded=1;whiteSpace=wrap;html=1;fillColor=#dae8fc;strokeColor=#6c8ebf;container=0;" parent="1" vertex="1">
          <mxGeometry x="954" y="1154" width="93" height="36" as="geometry" />
        </mxCell>
        <mxCell id="bwINNmz4oi5txDyVYaUs-64" style="edgeStyle=orthogonalEdgeStyle;rounded=0;orthogonalLoop=1;jettySize=auto;html=1;exitX=1;exitY=0.5;exitDx=0;exitDy=0;" parent="1" source="bwINNmz4oi5txDyVYaUs-62" edge="1">
          <mxGeometry relative="1" as="geometry">
            <mxPoint x="1140.5" y="1171" as="targetPoint" />
          </mxGeometry>
        </mxCell>
        <mxCell id="bwINNmz4oi5txDyVYaUs-65" value="是" style="edgeLabel;html=1;align=center;verticalAlign=middle;resizable=0;points=[];" parent="bwINNmz4oi5txDyVYaUs-64" vertex="1" connectable="0">
          <mxGeometry x="-0.4785" y="1" relative="1" as="geometry">
            <mxPoint x="1" as="offset" />
          </mxGeometry>
        </mxCell>
        <mxCell id="bwINNmz4oi5txDyVYaUs-62" value="数据为空" style="rhombus;whiteSpace=wrap;html=1;fillColor=#dae8fc;strokeColor=#6c8ebf;" parent="1" vertex="1">
          <mxGeometry x="965" y="1216" width="71" height="58" as="geometry" />
        </mxCell>
        <mxCell id="bwINNmz4oi5txDyVYaUs-63" style="edgeStyle=orthogonalEdgeStyle;rounded=0;orthogonalLoop=1;jettySize=auto;html=1;exitX=0.5;exitY=1;exitDx=0;exitDy=0;entryX=0.5;entryY=0;entryDx=0;entryDy=0;" parent="1" source="bwINNmz4oi5txDyVYaUs-60" target="bwINNmz4oi5txDyVYaUs-62" edge="1">
          <mxGeometry relative="1" as="geometry" />
        </mxCell>
        <mxCell id="bwINNmz4oi5txDyVYaUs-66" value="获取路由维度配置" style="rounded=1;whiteSpace=wrap;html=1;fillColor=#dae8fc;strokeColor=#6c8ebf;" parent="1" vertex="1">
          <mxGeometry x="954" y="1293" width="93" height="36" as="geometry" />
        </mxCell>
        <mxCell id="bwINNmz4oi5txDyVYaUs-67" style="edgeStyle=orthogonalEdgeStyle;rounded=0;orthogonalLoop=1;jettySize=auto;html=1;exitX=0.5;exitY=1;exitDx=0;exitDy=0;entryX=0.5;entryY=0;entryDx=0;entryDy=0;" parent="1" source="bwINNmz4oi5txDyVYaUs-62" target="bwINNmz4oi5txDyVYaUs-66" edge="1">
          <mxGeometry relative="1" as="geometry" />
        </mxCell>
        <mxCell id="bwINNmz4oi5txDyVYaUs-70" style="edgeStyle=orthogonalEdgeStyle;rounded=0;orthogonalLoop=1;jettySize=auto;html=1;exitX=1;exitY=0.5;exitDx=0;exitDy=0;" parent="1" source="bwINNmz4oi5txDyVYaUs-68" edge="1">
          <mxGeometry relative="1" as="geometry">
            <mxPoint x="1141.5" y="1169" as="targetPoint" />
            <Array as="points">
              <mxPoint x="1142.5" y="1375" />
            </Array>
          </mxGeometry>
        </mxCell>
        <mxCell id="bwINNmz4oi5txDyVYaUs-68" value="数据为空" style="rhombus;whiteSpace=wrap;html=1;fillColor=#dae8fc;strokeColor=#6c8ebf;" parent="1" vertex="1">
          <mxGeometry x="965" y="1348" width="71.5" height="53" as="geometry" />
        </mxCell>
        <mxCell id="bwINNmz4oi5txDyVYaUs-69" style="edgeStyle=orthogonalEdgeStyle;rounded=0;orthogonalLoop=1;jettySize=auto;html=1;exitX=0.5;exitY=1;exitDx=0;exitDy=0;entryX=0.5;entryY=0;entryDx=0;entryDy=0;" parent="1" source="bwINNmz4oi5txDyVYaUs-66" target="bwINNmz4oi5txDyVYaUs-68" edge="1">
          <mxGeometry relative="1" as="geometry" />
        </mxCell>
        <mxCell id="bwINNmz4oi5txDyVYaUs-140" value="" style="rounded=1;whiteSpace=wrap;html=1;fillColor=#f5f5f5;fontColor=#333333;strokeColor=#666666;" parent="1" vertex="1">
          <mxGeometry x="753" y="1069" width="150" height="433" as="geometry" />
        </mxCell>
        <mxCell id="bwINNmz4oi5txDyVYaUs-110" value="开始" style="ellipse;whiteSpace=wrap;html=1;fillColor=#dae8fc;strokeColor=#6c8ebf;" parent="1" vertex="1">
          <mxGeometry x="785" y="1073" width="67" height="33" as="geometry" />
        </mxCell>
        <mxCell id="bwINNmz4oi5txDyVYaUs-112" value="查询缓存" style="rhombus;whiteSpace=wrap;html=1;fillColor=#dae8fc;strokeColor=#6c8ebf;container=0;" parent="1" vertex="1">
          <mxGeometry x="783" y="1129" width="71" height="58" as="geometry" />
        </mxCell>
        <mxCell id="bwINNmz4oi5txDyVYaUs-113" style="edgeStyle=orthogonalEdgeStyle;rounded=0;orthogonalLoop=1;jettySize=auto;html=1;exitX=0.5;exitY=1;exitDx=0;exitDy=0;entryX=0.5;entryY=0;entryDx=0;entryDy=0;" parent="1" source="bwINNmz4oi5txDyVYaUs-110" target="bwINNmz4oi5txDyVYaUs-112" edge="1">
          <mxGeometry relative="1" as="geometry" />
        </mxCell>
        <mxCell id="bwINNmz4oi5txDyVYaUs-117" style="edgeStyle=orthogonalEdgeStyle;rounded=0;orthogonalLoop=1;jettySize=auto;html=1;exitX=0.5;exitY=1;exitDx=0;exitDy=0;" parent="1" source="bwINNmz4oi5txDyVYaUs-114" edge="1">
          <mxGeometry relative="1" as="geometry">
            <mxPoint x="818.5" y="1269" as="targetPoint" />
          </mxGeometry>
        </mxCell>
        <mxCell id="bwINNmz4oi5txDyVYaUs-114" value="获取路由配置" style="rounded=1;whiteSpace=wrap;html=1;fillColor=#dae8fc;strokeColor=#6c8ebf;container=0;" parent="1" vertex="1">
          <mxGeometry x="772" y="1210" width="93" height="36" as="geometry" />
        </mxCell>
        <mxCell id="bwINNmz4oi5txDyVYaUs-115" style="edgeStyle=orthogonalEdgeStyle;rounded=0;orthogonalLoop=1;jettySize=auto;html=1;exitX=0.5;exitY=1;exitDx=0;exitDy=0;entryX=0.5;entryY=0;entryDx=0;entryDy=0;" parent="1" source="bwINNmz4oi5txDyVYaUs-112" target="bwINNmz4oi5txDyVYaUs-114" edge="1">
          <mxGeometry relative="1" as="geometry" />
        </mxCell>
        <mxCell id="bwINNmz4oi5txDyVYaUs-118" value="获取路由维度配置" style="rounded=1;whiteSpace=wrap;html=1;fillColor=#dae8fc;strokeColor=#6c8ebf;" parent="1" vertex="1">
          <mxGeometry x="772" y="1273" width="93" height="36" as="geometry" />
        </mxCell>
        <mxCell id="bwINNmz4oi5txDyVYaUs-126" value="获取策略处理器" style="rounded=1;whiteSpace=wrap;html=1;fillColor=#dae8fc;strokeColor=#6c8ebf;container=0;" parent="1" vertex="1">
          <mxGeometry x="772" y="1335" width="93" height="36" as="geometry" />
        </mxCell>
        <mxCell id="bwINNmz4oi5txDyVYaUs-138" style="edgeStyle=orthogonalEdgeStyle;rounded=0;orthogonalLoop=1;jettySize=auto;html=1;exitX=0.5;exitY=1;exitDx=0;exitDy=0;entryX=0.5;entryY=0;entryDx=0;entryDy=0;" parent="1" source="bwINNmz4oi5txDyVYaUs-118" target="bwINNmz4oi5txDyVYaUs-126" edge="1">
          <mxGeometry relative="1" as="geometry" />
        </mxCell>
        <mxCell id="bwINNmz4oi5txDyVYaUs-129" value="计算路由结果并缓存" style="rounded=1;whiteSpace=wrap;html=1;fillColor=#dae8fc;strokeColor=#6c8ebf;container=0;" parent="1" vertex="1">
          <mxGeometry x="772" y="1400" width="93" height="36" as="geometry" />
        </mxCell>
        <mxCell id="bwINNmz4oi5txDyVYaUs-132" style="edgeStyle=orthogonalEdgeStyle;rounded=0;orthogonalLoop=1;jettySize=auto;html=1;exitX=0.5;exitY=1;exitDx=0;exitDy=0;" parent="1" source="bwINNmz4oi5txDyVYaUs-126" target="bwINNmz4oi5txDyVYaUs-129" edge="1">
          <mxGeometry relative="1" as="geometry" />
        </mxCell>
        <mxCell id="bwINNmz4oi5txDyVYaUs-131" value="结束" style="ellipse;whiteSpace=wrap;html=1;fillColor=#dae8fc;strokeColor=#6c8ebf;" parent="1" vertex="1">
          <mxGeometry x="781.5" y="1465" width="67" height="33" as="geometry" />
        </mxCell>
        <mxCell id="bwINNmz4oi5txDyVYaUs-139" style="edgeStyle=orthogonalEdgeStyle;rounded=0;orthogonalLoop=1;jettySize=auto;html=1;exitX=1;exitY=0.5;exitDx=0;exitDy=0;entryX=1;entryY=0.5;entryDx=0;entryDy=0;" parent="1" source="bwINNmz4oi5txDyVYaUs-112" target="bwINNmz4oi5txDyVYaUs-131" edge="1">
          <mxGeometry relative="1" as="geometry">
            <Array as="points">
              <mxPoint x="889" y="1158" />
              <mxPoint x="889" y="1482" />
            </Array>
          </mxGeometry>
        </mxCell>
        <mxCell id="bwINNmz4oi5txDyVYaUs-133" style="edgeStyle=orthogonalEdgeStyle;rounded=0;orthogonalLoop=1;jettySize=auto;html=1;exitX=0.5;exitY=1;exitDx=0;exitDy=0;entryX=0.5;entryY=0;entryDx=0;entryDy=0;" parent="1" source="bwINNmz4oi5txDyVYaUs-129" target="bwINNmz4oi5txDyVYaUs-131" edge="1">
          <mxGeometry relative="1" as="geometry" />
        </mxCell>
        <mxCell id="bwINNmz4oi5txDyVYaUs-143" value="服务端" style="text;html=1;strokeColor=none;fillColor=none;align=center;verticalAlign=middle;whiteSpace=wrap;rounded=0;" parent="1" vertex="1">
          <mxGeometry x="790" y="1039" width="60" height="30" as="geometry" />
        </mxCell>
        <mxCell id="bwINNmz4oi5txDyVYaUs-144" value="账单模版" style="rounded=1;whiteSpace=wrap;html=1;" parent="1" vertex="1">
          <mxGeometry x="530" y="1753" width="87" height="32" as="geometry" />
        </mxCell>
        <mxCell id="bwINNmz4oi5txDyVYaUs-151" style="edgeStyle=orthogonalEdgeStyle;rounded=0;orthogonalLoop=1;jettySize=auto;html=1;exitX=1;exitY=0.5;exitDx=0;exitDy=0;entryX=0;entryY=0.5;entryDx=0;entryDy=0;" parent="1" source="bwINNmz4oi5txDyVYaUs-145" target="bwINNmz4oi5txDyVYaUs-148" edge="1">
          <mxGeometry relative="1" as="geometry" />
        </mxCell>
        <mxCell id="bwINNmz4oi5txDyVYaUs-145" value="会员账单配置" style="rounded=1;whiteSpace=wrap;html=1;" parent="1" vertex="1">
          <mxGeometry x="530" y="1806" width="87" height="32" as="geometry" />
        </mxCell>
        <mxCell id="bwINNmz4oi5txDyVYaUs-160" style="edgeStyle=orthogonalEdgeStyle;rounded=0;orthogonalLoop=1;jettySize=auto;html=1;exitX=1;exitY=0.5;exitDx=0;exitDy=0;entryX=0.5;entryY=1;entryDx=0;entryDy=0;" parent="1" source="bwINNmz4oi5txDyVYaUs-146" target="bwINNmz4oi5txDyVYaUs-149" edge="1">
          <mxGeometry relative="1" as="geometry" />
        </mxCell>
        <mxCell id="bwINNmz4oi5txDyVYaUs-146" value="历史计划" style="rounded=1;whiteSpace=wrap;html=1;" parent="1" vertex="1">
          <mxGeometry x="530" y="1859" width="87" height="32" as="geometry" />
        </mxCell>
        <mxCell id="bwINNmz4oi5txDyVYaUs-159" style="edgeStyle=orthogonalEdgeStyle;rounded=0;orthogonalLoop=1;jettySize=auto;html=1;exitX=1;exitY=0.5;exitDx=0;exitDy=0;entryX=0.5;entryY=1;entryDx=0;entryDy=0;" parent="1" source="bwINNmz4oi5txDyVYaUs-147" target="bwINNmz4oi5txDyVYaUs-149" edge="1">
          <mxGeometry relative="1" as="geometry" />
        </mxCell>
        <mxCell id="bwINNmz4oi5txDyVYaUs-147" value="临时计划" style="rounded=1;whiteSpace=wrap;html=1;" parent="1" vertex="1">
          <mxGeometry x="530" y="1912" width="87" height="32" as="geometry" />
        </mxCell>
        <mxCell id="bwINNmz4oi5txDyVYaUs-152" style="edgeStyle=orthogonalEdgeStyle;rounded=0;orthogonalLoop=1;jettySize=auto;html=1;exitX=1;exitY=0.5;exitDx=0;exitDy=0;" parent="1" source="bwINNmz4oi5txDyVYaUs-148" target="bwINNmz4oi5txDyVYaUs-149" edge="1">
          <mxGeometry relative="1" as="geometry" />
        </mxCell>
        <mxCell id="bwINNmz4oi5txDyVYaUs-148" value="生成计划" style="rounded=1;whiteSpace=wrap;html=1;" parent="1" vertex="1">
          <mxGeometry x="672" y="1806" width="87" height="32" as="geometry" />
        </mxCell>
        <mxCell id="bwINNmz4oi5txDyVYaUs-176" style="edgeStyle=orthogonalEdgeStyle;rounded=0;orthogonalLoop=1;jettySize=auto;html=1;exitX=1;exitY=0.5;exitDx=0;exitDy=0;" parent="1" source="bwINNmz4oi5txDyVYaUs-149" target="bwINNmz4oi5txDyVYaUs-173" edge="1">
          <mxGeometry relative="1" as="geometry" />
        </mxCell>
        <mxCell id="bwINNmz4oi5txDyVYaUs-149" value="执行计划" style="rounded=1;whiteSpace=wrap;html=1;" parent="1" vertex="1">
          <mxGeometry x="808" y="1806" width="87" height="32" as="geometry" />
        </mxCell>
        <mxCell id="bwINNmz4oi5txDyVYaUs-155" style="edgeStyle=orthogonalEdgeStyle;rounded=0;orthogonalLoop=1;jettySize=auto;html=1;exitX=1;exitY=0.5;exitDx=0;exitDy=0;entryX=0;entryY=0.5;entryDx=0;entryDy=0;" parent="1" source="bwINNmz4oi5txDyVYaUs-150" target="bwINNmz4oi5txDyVYaUs-154" edge="1">
          <mxGeometry relative="1" as="geometry" />
        </mxCell>
        <mxCell id="bwINNmz4oi5txDyVYaUs-150" value="巡检计划" style="rounded=1;whiteSpace=wrap;html=1;" parent="1" vertex="1">
          <mxGeometry x="1047" y="1806" width="87" height="32" as="geometry" />
        </mxCell>
        <mxCell id="bwINNmz4oi5txDyVYaUs-154" value="" style="ellipse;whiteSpace=wrap;html=1;aspect=fixed;fillColor=#666666;" parent="1" vertex="1">
          <mxGeometry x="1164" y="1808.5" width="27" height="27" as="geometry" />
        </mxCell>
        <mxCell id="bwINNmz4oi5txDyVYaUs-157" style="edgeStyle=orthogonalEdgeStyle;rounded=0;orthogonalLoop=1;jettySize=auto;html=1;exitX=1;exitY=0.3333333333333333;exitDx=0;exitDy=0;exitPerimeter=0;entryX=0;entryY=0.5;entryDx=0;entryDy=0;" parent="1" source="bwINNmz4oi5txDyVYaUs-179" target="bwINNmz4oi5txDyVYaUs-145" edge="1">
          <mxGeometry relative="1" as="geometry">
            <mxPoint x="475" y="1821.3333333333335" as="sourcePoint" />
          </mxGeometry>
        </mxCell>
        <mxCell id="bwINNmz4oi5txDyVYaUs-163" value="失败重试" style="rounded=1;whiteSpace=wrap;html=1;" parent="1" vertex="1">
          <mxGeometry x="808" y="1760" width="87" height="32" as="geometry" />
        </mxCell>
        <mxCell id="bwINNmz4oi5txDyVYaUs-165" style="edgeStyle=orthogonalEdgeStyle;rounded=0;orthogonalLoop=1;jettySize=auto;html=1;exitX=0.75;exitY=1;exitDx=0;exitDy=0;elbow=vertical;curved=1;endArrow=oval;endFill=0;" parent="1" source="bwINNmz4oi5txDyVYaUs-164" edge="1">
          <mxGeometry relative="1" as="geometry">
            <mxPoint x="775" y="1821" as="targetPoint" />
          </mxGeometry>
        </mxCell>
        <mxCell id="bwINNmz4oi5txDyVYaUs-164" value="数仓清洗通知" style="rounded=1;whiteSpace=wrap;html=1;dashed=1;dashPattern=8 8;fillColor=#f5f5f5;strokeColor=#666666;fontColor=#333333;" parent="1" vertex="1">
          <mxGeometry x="710" y="1760" width="87" height="32" as="geometry" />
        </mxCell>
        <mxCell id="bwINNmz4oi5txDyVYaUs-167" style="edgeStyle=orthogonalEdgeStyle;rounded=0;orthogonalLoop=1;jettySize=auto;html=1;exitX=1;exitY=0.3333333333333333;exitDx=0;exitDy=0;exitPerimeter=0;entryX=0;entryY=0.5;entryDx=0;entryDy=0;curved=1;" parent="1" source="bwINNmz4oi5txDyVYaUs-166" target="bwINNmz4oi5txDyVYaUs-146" edge="1">
          <mxGeometry relative="1" as="geometry" />
        </mxCell>
        <mxCell id="bwINNmz4oi5txDyVYaUs-168" style="edgeStyle=orthogonalEdgeStyle;rounded=0;orthogonalLoop=1;jettySize=auto;html=1;exitX=1;exitY=0.3333333333333333;exitDx=0;exitDy=0;exitPerimeter=0;entryX=0;entryY=0.5;entryDx=0;entryDy=0;curved=1;" parent="1" source="bwINNmz4oi5txDyVYaUs-166" target="bwINNmz4oi5txDyVYaUs-147" edge="1">
          <mxGeometry relative="1" as="geometry" />
        </mxCell>
        <mxCell id="bwINNmz4oi5txDyVYaUs-166" value="Actor" style="shape=umlActor;verticalLabelPosition=bottom;verticalAlign=top;html=1;outlineConnect=0;" parent="1" vertex="1">
          <mxGeometry x="450" y="1883" width="19" height="45" as="geometry" />
        </mxCell>
        <mxCell id="bwINNmz4oi5txDyVYaUs-171" value="omc管理端" style="text;html=1;strokeColor=none;fillColor=none;align=center;verticalAlign=middle;whiteSpace=wrap;rounded=0;" parent="1" vertex="1">
          <mxGeometry x="540" y="1707" width="67" height="30" as="geometry" />
        </mxCell>
        <mxCell id="bwINNmz4oi5txDyVYaUs-172" value="mmc" style="text;html=1;strokeColor=none;fillColor=none;align=center;verticalAlign=middle;whiteSpace=wrap;rounded=0;" parent="1" vertex="1">
          <mxGeometry x="828" y="1707" width="67" height="30" as="geometry" />
        </mxCell>
        <mxCell id="bwINNmz4oi5txDyVYaUs-177" style="edgeStyle=orthogonalEdgeStyle;rounded=0;orthogonalLoop=1;jettySize=auto;html=1;exitX=1;exitY=0.5;exitDx=0;exitDy=0;entryX=0;entryY=0.5;entryDx=0;entryDy=0;" parent="1" source="bwINNmz4oi5txDyVYaUs-173" target="bwINNmz4oi5txDyVYaUs-150" edge="1">
          <mxGeometry relative="1" as="geometry" />
        </mxCell>
        <mxCell id="bwINNmz4oi5txDyVYaUs-173" value="账单打包" style="rounded=1;whiteSpace=wrap;html=1;" parent="1" vertex="1">
          <mxGeometry x="930" y="1806" width="87" height="32" as="geometry" />
        </mxCell>
        <mxCell id="bwINNmz4oi5txDyVYaUs-174" value="SFTP推送" style="rounded=1;whiteSpace=wrap;html=1;" parent="1" vertex="1">
          <mxGeometry x="930" y="1851" width="87" height="32" as="geometry" />
        </mxCell>
        <mxCell id="bwINNmz4oi5txDyVYaUs-175" value="邮件通知" style="rounded=1;whiteSpace=wrap;html=1;" parent="1" vertex="1">
          <mxGeometry x="930" y="1896" width="87" height="32" as="geometry" />
        </mxCell>
        <mxCell id="bwINNmz4oi5txDyVYaUs-179" value="" style="ellipse;whiteSpace=wrap;html=1;aspect=fixed;fillColor=#f5f5f5;fontColor=#333333;strokeColor=#666666;" parent="1" vertex="1">
          <mxGeometry x="450" y="1813" width="27" height="27" as="geometry" />
        </mxCell>
        <mxCell id="bwINNmz4oi5txDyVYaUs-182" value="job" style="text;html=1;strokeColor=none;fillColor=none;align=center;verticalAlign=middle;whiteSpace=wrap;rounded=0;" parent="1" vertex="1">
          <mxGeometry x="434" y="1840" width="60" height="30" as="geometry" />
        </mxCell>
        <mxCell id="bwINNmz4oi5txDyVYaUs-183" value="系统设计" style="rounded=1;whiteSpace=wrap;html=1;" parent="1" vertex="1">
          <mxGeometry x="401" y="2231" width="93" height="36" as="geometry" />
        </mxCell>
        <mxCell id="bwINNmz4oi5txDyVYaUs-184" value="路由管理" style="swimlane;whiteSpace=wrap;html=1;" parent="1" vertex="1">
          <mxGeometry x="1381" y="723" width="303" height="329" as="geometry" />
        </mxCell>
        <mxCell id="bwINNmz4oi5txDyVYaUs-185" value="计划创建器" style="swimlane;whiteSpace=wrap;html=1;fillColor=#d5e8d4;strokeColor=#82b366;" parent="1" vertex="1">
          <mxGeometry x="2250" y="734" width="165" height="157" as="geometry" />
        </mxCell>
        <mxCell id="bwINNmz4oi5txDyVYaUs-187" value="商户计划" style="rounded=1;whiteSpace=wrap;html=1;" parent="bwINNmz4oi5txDyVYaUs-185" vertex="1">
          <mxGeometry x="31" y="32" width="98" height="30" as="geometry" />
        </mxCell>
        <mxCell id="bwINNmz4oi5txDyVYaUs-190" value="会员计划" style="rounded=1;whiteSpace=wrap;html=1;" parent="bwINNmz4oi5txDyVYaUs-185" vertex="1">
          <mxGeometry x="31" y="68" width="98" height="30" as="geometry" />
        </mxCell>
        <mxCell id="bwINNmz4oi5txDyVYaUs-191" value="商户组计划" style="rounded=1;whiteSpace=wrap;html=1;" parent="bwINNmz4oi5txDyVYaUs-185" vertex="1">
          <mxGeometry x="31" y="104" width="98" height="30" as="geometry" />
        </mxCell>
        <mxCell id="bwINNmz4oi5txDyVYaUs-192" value="计划执行器" style="swimlane;whiteSpace=wrap;html=1;fillColor=#d5e8d4;strokeColor=#82b366;" parent="1" vertex="1">
          <mxGeometry x="2425" y="734" width="464" height="456" as="geometry" />
        </mxCell>
        <mxCell id="bwINNmz4oi5txDyVYaUs-196" value="计划处理器" style="swimlane;whiteSpace=wrap;html=1;fillColor=#dae8fc;strokeColor=#6c8ebf;gradientColor=#7ea6e0;" parent="bwINNmz4oi5txDyVYaUs-192" vertex="1">
          <mxGeometry x="13.5" y="31" width="445" height="89" as="geometry" />
        </mxCell>
        <mxCell id="bwINNmz4oi5txDyVYaUs-200" style="edgeStyle=orthogonalEdgeStyle;rounded=0;orthogonalLoop=1;jettySize=auto;html=1;exitX=1;exitY=0.5;exitDx=0;exitDy=0;entryX=0;entryY=0.5;entryDx=0;entryDy=0;" parent="bwINNmz4oi5txDyVYaUs-196" source="bwINNmz4oi5txDyVYaUs-197" target="bwINNmz4oi5txDyVYaUs-198" edge="1">
          <mxGeometry relative="1" as="geometry" />
        </mxCell>
        <mxCell id="bwINNmz4oi5txDyVYaUs-197" value="数据加载" style="rounded=1;whiteSpace=wrap;html=1;" parent="bwINNmz4oi5txDyVYaUs-196" vertex="1">
          <mxGeometry x="23" y="38.5" width="85" height="32.5" as="geometry" />
        </mxCell>
        <mxCell id="bwINNmz4oi5txDyVYaUs-201" style="edgeStyle=orthogonalEdgeStyle;rounded=0;orthogonalLoop=1;jettySize=auto;html=1;exitX=1;exitY=0.5;exitDx=0;exitDy=0;" parent="bwINNmz4oi5txDyVYaUs-196" source="bwINNmz4oi5txDyVYaUs-198" target="bwINNmz4oi5txDyVYaUs-199" edge="1">
          <mxGeometry relative="1" as="geometry" />
        </mxCell>
        <mxCell id="bwINNmz4oi5txDyVYaUs-198" value="数据转换" style="rounded=1;whiteSpace=wrap;html=1;" parent="bwINNmz4oi5txDyVYaUs-196" vertex="1">
          <mxGeometry x="168" y="38.5" width="85" height="32.5" as="geometry" />
        </mxCell>
        <mxCell id="bwINNmz4oi5txDyVYaUs-199" value="数据写入" style="rounded=1;whiteSpace=wrap;html=1;" parent="bwINNmz4oi5txDyVYaUs-196" vertex="1">
          <mxGeometry x="319" y="38.5" width="85" height="32.5" as="geometry" />
        </mxCell>
        <mxCell id="bwINNmz4oi5txDyVYaUs-203" value="数据加载处理器" style="swimlane;whiteSpace=wrap;html=1;fillColor=#d5e8d4;gradientColor=#97d077;strokeColor=#82b366;" parent="bwINNmz4oi5txDyVYaUs-192" vertex="1">
          <mxGeometry x="13.5" y="140" width="136" height="202" as="geometry" />
        </mxCell>
        <mxCell id="bwINNmz4oi5txDyVYaUs-205" value="JDBC" style="rounded=1;whiteSpace=wrap;html=1;fillColor=#f5f5f5;gradientColor=#b3b3b3;strokeColor=#666666;" parent="bwINNmz4oi5txDyVYaUs-203" vertex="1">
          <mxGeometry x="25.5" y="32" width="85" height="32.5" as="geometry" />
        </mxCell>
        <mxCell id="bwINNmz4oi5txDyVYaUs-206" value="DataWorks" style="rounded=1;whiteSpace=wrap;html=1;fillColor=#f5f5f5;gradientColor=#b3b3b3;strokeColor=#666666;" parent="bwINNmz4oi5txDyVYaUs-203" vertex="1">
          <mxGeometry x="25.5" y="77" width="85" height="32.5" as="geometry" />
        </mxCell>
        <mxCell id="bwINNmz4oi5txDyVYaUs-207" value="HttpLoad" style="rounded=1;whiteSpace=wrap;html=1;shadow=0;sketch=1;curveFitting=1;jiggle=2;" parent="bwINNmz4oi5txDyVYaUs-203" vertex="1">
          <mxGeometry x="25.5" y="118" width="85" height="32.5" as="geometry" />
        </mxCell>
        <mxCell id="bwINNmz4oi5txDyVYaUs-212" value="......." style="rounded=1;whiteSpace=wrap;html=1;sketch=1;curveFitting=1;jiggle=2;" parent="bwINNmz4oi5txDyVYaUs-203" vertex="1">
          <mxGeometry x="25.5" y="158" width="85" height="32.5" as="geometry" />
        </mxCell>
        <mxCell id="bwINNmz4oi5txDyVYaUs-213" value="数据转换处理器" style="swimlane;whiteSpace=wrap;html=1;fillColor=#d5e8d4;gradientColor=#97d077;strokeColor=#82b366;" parent="bwINNmz4oi5txDyVYaUs-192" vertex="1">
          <mxGeometry x="164" y="140" width="136" height="202" as="geometry" />
        </mxCell>
        <mxCell id="bwINNmz4oi5txDyVYaUs-214" value="商户号转换器" style="rounded=1;whiteSpace=wrap;html=1;fillColor=#f5f5f5;gradientColor=#b3b3b3;strokeColor=#666666;" parent="bwINNmz4oi5txDyVYaUs-213" vertex="1">
          <mxGeometry x="25.5" y="32" width="85" height="32.5" as="geometry" />
        </mxCell>
        <mxCell id="bwINNmz4oi5txDyVYaUs-215" value="金额转换器" style="rounded=1;whiteSpace=wrap;html=1;fillColor=#f5f5f5;gradientColor=#b3b3b3;strokeColor=#666666;" parent="bwINNmz4oi5txDyVYaUs-213" vertex="1">
          <mxGeometry x="25.5" y="77" width="85" height="32.5" as="geometry" />
        </mxCell>
        <mxCell id="bwINNmz4oi5txDyVYaUs-216" value="日期转换器" style="rounded=1;whiteSpace=wrap;html=1;shadow=0;glass=0;fillColor=#f5f5f5;gradientColor=#b3b3b3;strokeColor=#666666;" parent="bwINNmz4oi5txDyVYaUs-213" vertex="1">
          <mxGeometry x="25.5" y="118" width="85" height="32.5" as="geometry" />
        </mxCell>
        <mxCell id="bwINNmz4oi5txDyVYaUs-217" value="......." style="rounded=1;whiteSpace=wrap;html=1;sketch=1;curveFitting=1;jiggle=2;" parent="bwINNmz4oi5txDyVYaUs-213" vertex="1">
          <mxGeometry x="25.5" y="158" width="85" height="32.5" as="geometry" />
        </mxCell>
        <mxCell id="bwINNmz4oi5txDyVYaUs-218" style="edgeStyle=orthogonalEdgeStyle;rounded=0;orthogonalLoop=1;jettySize=auto;html=1;exitX=0.5;exitY=1;exitDx=0;exitDy=0;entryX=0.5;entryY=0;entryDx=0;entryDy=0;" parent="bwINNmz4oi5txDyVYaUs-192" source="bwINNmz4oi5txDyVYaUs-198" target="bwINNmz4oi5txDyVYaUs-213" edge="1">
          <mxGeometry relative="1" as="geometry" />
        </mxCell>
        <mxCell id="bwINNmz4oi5txDyVYaUs-219" value="数据写入处理器" style="swimlane;whiteSpace=wrap;html=1;fillColor=#d5e8d4;gradientColor=#97d077;strokeColor=#82b366;" parent="bwINNmz4oi5txDyVYaUs-192" vertex="1">
          <mxGeometry x="312" y="139" width="136" height="202" as="geometry" />
        </mxCell>
        <mxCell id="bwINNmz4oi5txDyVYaUs-220" value="excel" style="rounded=1;whiteSpace=wrap;html=1;fillColor=#f5f5f5;gradientColor=#b3b3b3;strokeColor=#666666;" parent="bwINNmz4oi5txDyVYaUs-219" vertex="1">
          <mxGeometry x="25.5" y="32" width="85" height="32.5" as="geometry" />
        </mxCell>
        <mxCell id="bwINNmz4oi5txDyVYaUs-221" value="csv" style="rounded=1;whiteSpace=wrap;html=1;fillColor=#f5f5f5;gradientColor=#b3b3b3;strokeColor=#666666;" parent="bwINNmz4oi5txDyVYaUs-219" vertex="1">
          <mxGeometry x="25.5" y="77" width="85" height="32.5" as="geometry" />
        </mxCell>
        <mxCell id="bwINNmz4oi5txDyVYaUs-223" value="......." style="rounded=1;whiteSpace=wrap;html=1;sketch=1;curveFitting=1;jiggle=2;" parent="bwINNmz4oi5txDyVYaUs-219" vertex="1">
          <mxGeometry x="28" y="126" width="85" height="32.5" as="geometry" />
        </mxCell>
        <mxCell id="bwINNmz4oi5txDyVYaUs-224" style="edgeStyle=orthogonalEdgeStyle;rounded=0;orthogonalLoop=1;jettySize=auto;html=1;exitX=0.5;exitY=1;exitDx=0;exitDy=0;entryX=0.5;entryY=0;entryDx=0;entryDy=0;" parent="bwINNmz4oi5txDyVYaUs-192" source="bwINNmz4oi5txDyVYaUs-199" target="bwINNmz4oi5txDyVYaUs-219" edge="1">
          <mxGeometry relative="1" as="geometry" />
        </mxCell>
        <mxCell id="bwINNmz4oi5txDyVYaUs-225" value="账单配置解析器" style="swimlane;whiteSpace=wrap;html=1;fillColor=#ffe6cc;strokeColor=#d79b00;" parent="bwINNmz4oi5txDyVYaUs-192" vertex="1">
          <mxGeometry x="10" y="353" width="443" height="87" as="geometry" />
        </mxCell>
        <mxCell id="bwINNmz4oi5txDyVYaUs-227" value="列解析" style="rounded=1;whiteSpace=wrap;html=1;" parent="bwINNmz4oi5txDyVYaUs-225" vertex="1">
          <mxGeometry x="22" y="35" width="95" height="35" as="geometry" />
        </mxCell>
        <mxCell id="bwINNmz4oi5txDyVYaUs-228" value="查询条件解析" style="rounded=1;whiteSpace=wrap;html=1;" parent="bwINNmz4oi5txDyVYaUs-225" vertex="1">
          <mxGeometry x="159" y="35" width="95" height="35" as="geometry" />
        </mxCell>
        <mxCell id="bwINNmz4oi5txDyVYaUs-229" value="分组条件解析" style="rounded=1;whiteSpace=wrap;html=1;" parent="bwINNmz4oi5txDyVYaUs-225" vertex="1">
          <mxGeometry x="296" y="33" width="95" height="35" as="geometry" />
        </mxCell>
        <mxCell id="bwINNmz4oi5txDyVYaUs-230" style="edgeStyle=orthogonalEdgeStyle;rounded=0;orthogonalLoop=1;jettySize=auto;html=1;exitX=0.5;exitY=1;exitDx=0;exitDy=0;entryX=0.5;entryY=0;entryDx=0;entryDy=0;" parent="bwINNmz4oi5txDyVYaUs-192" source="bwINNmz4oi5txDyVYaUs-197" target="bwINNmz4oi5txDyVYaUs-203" edge="1">
          <mxGeometry relative="1" as="geometry" />
        </mxCell>
        <mxCell id="bwINNmz4oi5txDyVYaUs-259" value="计划巡检器" style="swimlane;whiteSpace=wrap;html=1;fillColor=#d5e8d4;strokeColor=#82b366;" parent="1" vertex="1">
          <mxGeometry x="2903" y="734" width="181" height="103" as="geometry" />
        </mxCell>
        <mxCell id="bwINNmz4oi5txDyVYaUs-260" value="数据记录匹配" style="rounded=1;whiteSpace=wrap;html=1;" parent="bwINNmz4oi5txDyVYaUs-259" vertex="1">
          <mxGeometry x="42.5" y="41" width="96" height="34" as="geometry" />
        </mxCell>
        <mxCell id="bwINNmz4oi5txDyVYaUs-261" value="打包执行器" style="swimlane;whiteSpace=wrap;html=1;fillColor=#d5e8d4;strokeColor=#82b366;" parent="1" vertex="1">
          <mxGeometry x="2903" y="867" width="304" height="169" as="geometry" />
        </mxCell>
        <mxCell id="bwINNmz4oi5txDyVYaUs-268" style="edgeStyle=orthogonalEdgeStyle;rounded=0;orthogonalLoop=1;jettySize=auto;html=1;exitX=1;exitY=0.5;exitDx=0;exitDy=0;entryX=0;entryY=0.5;entryDx=0;entryDy=0;" parent="bwINNmz4oi5txDyVYaUs-261" source="bwINNmz4oi5txDyVYaUs-262" target="bwINNmz4oi5txDyVYaUs-263" edge="1">
          <mxGeometry relative="1" as="geometry" />
        </mxCell>
        <mxCell id="bwINNmz4oi5txDyVYaUs-262" value="打包任务" style="rounded=1;whiteSpace=wrap;html=1;" parent="bwINNmz4oi5txDyVYaUs-261" vertex="1">
          <mxGeometry x="15" y="43" width="68" height="34" as="geometry" />
        </mxCell>
        <mxCell id="bwINNmz4oi5txDyVYaUs-269" style="edgeStyle=orthogonalEdgeStyle;rounded=0;orthogonalLoop=1;jettySize=auto;html=1;exitX=1;exitY=0.5;exitDx=0;exitDy=0;entryX=0;entryY=0.5;entryDx=0;entryDy=0;" parent="bwINNmz4oi5txDyVYaUs-261" source="bwINNmz4oi5txDyVYaUs-263" target="bwINNmz4oi5txDyVYaUs-264" edge="1">
          <mxGeometry relative="1" as="geometry" />
        </mxCell>
        <mxCell id="bwINNmz4oi5txDyVYaUs-263" value="打包规则匹配" style="rounded=1;whiteSpace=wrap;html=1;" parent="bwINNmz4oi5txDyVYaUs-261" vertex="1">
          <mxGeometry x="110" y="43" width="78" height="34" as="geometry" />
        </mxCell>
        <mxCell id="bwINNmz4oi5txDyVYaUs-264" value="打包处理器" style="rounded=1;whiteSpace=wrap;html=1;" parent="bwINNmz4oi5txDyVYaUs-261" vertex="1">
          <mxGeometry x="215" y="43" width="78" height="34" as="geometry" />
        </mxCell>
        <mxCell id="bwINNmz4oi5txDyVYaUs-266" value="SFTP" style="rounded=1;whiteSpace=wrap;html=1;" parent="bwINNmz4oi5txDyVYaUs-261" vertex="1">
          <mxGeometry x="215" y="86" width="78" height="34" as="geometry" />
        </mxCell>
        <mxCell id="bwINNmz4oi5txDyVYaUs-267" value="S3" style="rounded=1;whiteSpace=wrap;html=1;" parent="bwINNmz4oi5txDyVYaUs-261" vertex="1">
          <mxGeometry x="215" y="126" width="78" height="34" as="geometry" />
        </mxCell>
        <mxCell id="bwINNmz4oi5txDyVYaUs-273" value="账单模版" style="swimlane;whiteSpace=wrap;html=1;fillColor=#d5e8d4;strokeColor=#82b366;" parent="1" vertex="1">
          <mxGeometry x="2006" y="734" width="234" height="155" as="geometry" />
        </mxCell>
        <mxCell id="bwINNmz4oi5txDyVYaUs-274" value="处理器配置" style="rounded=1;whiteSpace=wrap;html=1;" parent="bwINNmz4oi5txDyVYaUs-273" vertex="1">
          <mxGeometry x="13" y="36" width="77" height="31" as="geometry" />
        </mxCell>
        <mxCell id="bwINNmz4oi5txDyVYaUs-275" value="文件配置" style="rounded=1;whiteSpace=wrap;html=1;" parent="bwINNmz4oi5txDyVYaUs-273" vertex="1">
          <mxGeometry x="117" y="36" width="77" height="31" as="geometry" />
        </mxCell>
        <mxCell id="bwINNmz4oi5txDyVYaUs-276" value="字段定义" style="rounded=1;whiteSpace=wrap;html=1;" parent="bwINNmz4oi5txDyVYaUs-273" vertex="1">
          <mxGeometry x="13" y="74" width="77" height="31" as="geometry" />
        </mxCell>
        <mxCell id="bwINNmz4oi5txDyVYaUs-277" value="条件定义" style="rounded=1;whiteSpace=wrap;html=1;" parent="bwINNmz4oi5txDyVYaUs-273" vertex="1">
          <mxGeometry x="119" y="74" width="77" height="31" as="geometry" />
        </mxCell>
        <mxCell id="bwINNmz4oi5txDyVYaUs-278" value="分组定义" style="rounded=1;whiteSpace=wrap;html=1;" parent="bwINNmz4oi5txDyVYaUs-273" vertex="1">
          <mxGeometry x="13" y="112" width="77" height="31" as="geometry" />
        </mxCell>
        <mxCell id="bwINNmz4oi5txDyVYaUs-279" value="打包规则" style="swimlane;whiteSpace=wrap;html=1;fillColor=#d5e8d4;strokeColor=#82b366;" parent="1" vertex="1">
          <mxGeometry x="2006" y="899" width="231" height="129" as="geometry" />
        </mxCell>
        <mxCell id="bwINNmz4oi5txDyVYaUs-280" value="规则配置" style="rounded=1;whiteSpace=wrap;html=1;" parent="bwINNmz4oi5txDyVYaUs-279" vertex="1">
          <mxGeometry x="19" y="45" width="77" height="31" as="geometry" />
        </mxCell>
        <mxCell id="bwINNmz4oi5txDyVYaUs-281" value="zip配置" style="rounded=1;whiteSpace=wrap;html=1;" parent="bwINNmz4oi5txDyVYaUs-279" vertex="1">
          <mxGeometry x="112" y="45" width="77" height="31" as="geometry" />
        </mxCell>
        <mxCell id="bwINNmz4oi5txDyVYaUs-282" value="路径配置" style="rounded=1;whiteSpace=wrap;html=1;" parent="bwINNmz4oi5txDyVYaUs-279" vertex="1">
          <mxGeometry x="19" y="84.5" width="77" height="31" as="geometry" />
        </mxCell>
        <mxCell id="bwINNmz4oi5txDyVYaUs-283" value="job" style="swimlane;whiteSpace=wrap;html=1;fillColor=#d5e8d4;strokeColor=#82b366;" parent="1" vertex="1">
          <mxGeometry x="2248" y="903" width="166" height="241" as="geometry" />
        </mxCell>
        <mxCell id="bwINNmz4oi5txDyVYaUs-284" value="创建计划" style="rounded=1;whiteSpace=wrap;html=1;" parent="bwINNmz4oi5txDyVYaUs-283" vertex="1">
          <mxGeometry x="33" y="31" width="103" height="40" as="geometry" />
        </mxCell>
        <mxCell id="bwINNmz4oi5txDyVYaUs-287" value="执行计划" style="rounded=1;whiteSpace=wrap;html=1;" parent="bwINNmz4oi5txDyVYaUs-283" vertex="1">
          <mxGeometry x="33" y="80.5" width="103" height="40" as="geometry" />
        </mxCell>
        <mxCell id="bwINNmz4oi5txDyVYaUs-288" value="打包" style="rounded=1;whiteSpace=wrap;html=1;" parent="bwINNmz4oi5txDyVYaUs-283" vertex="1">
          <mxGeometry x="33" y="130" width="103" height="40" as="geometry" />
        </mxCell>
        <mxCell id="bwINNmz4oi5txDyVYaUs-289" value="计划巡检" style="rounded=1;whiteSpace=wrap;html=1;" parent="bwINNmz4oi5txDyVYaUs-283" vertex="1">
          <mxGeometry x="33" y="180" width="103" height="40" as="geometry" />
        </mxCell>
        <mxCell id="bwINNmz4oi5txDyVYaUs-290" value="路由管理器" style="swimlane;whiteSpace=wrap;html=1;fillColor=#d5e8d4;gradientColor=#97d077;strokeColor=#82b366;" parent="1" vertex="1">
          <mxGeometry x="2365" y="1373" width="429" height="295" as="geometry" />
        </mxCell>
        <mxCell id="bwINNmz4oi5txDyVYaUs-296" style="edgeStyle=orthogonalEdgeStyle;rounded=0;orthogonalLoop=1;jettySize=auto;html=1;exitX=1;exitY=0.5;exitDx=0;exitDy=0;entryX=0;entryY=0.5;entryDx=0;entryDy=0;" parent="bwINNmz4oi5txDyVYaUs-290" source="bwINNmz4oi5txDyVYaUs-291" target="bwINNmz4oi5txDyVYaUs-292" edge="1">
          <mxGeometry relative="1" as="geometry" />
        </mxCell>
        <mxCell id="bwINNmz4oi5txDyVYaUs-291" value="路由配置" style="rounded=1;whiteSpace=wrap;html=1;" parent="bwINNmz4oi5txDyVYaUs-290" vertex="1">
          <mxGeometry x="15" y="45" width="85" height="34" as="geometry" />
        </mxCell>
        <mxCell id="bwINNmz4oi5txDyVYaUs-297" style="edgeStyle=orthogonalEdgeStyle;rounded=0;orthogonalLoop=1;jettySize=auto;html=1;exitX=1;exitY=0.5;exitDx=0;exitDy=0;" parent="bwINNmz4oi5txDyVYaUs-290" source="bwINNmz4oi5txDyVYaUs-292" target="bwINNmz4oi5txDyVYaUs-293" edge="1">
          <mxGeometry relative="1" as="geometry" />
        </mxCell>
        <mxCell id="bwINNmz4oi5txDyVYaUs-292" value="维度路由配置" style="rounded=1;whiteSpace=wrap;html=1;" parent="bwINNmz4oi5txDyVYaUs-290" vertex="1">
          <mxGeometry x="142" y="45" width="85" height="34" as="geometry" />
        </mxCell>
        <mxCell id="bwINNmz4oi5txDyVYaUs-298" style="edgeStyle=orthogonalEdgeStyle;rounded=0;orthogonalLoop=1;jettySize=auto;html=1;exitX=0.5;exitY=1;exitDx=0;exitDy=0;entryX=0.5;entryY=0;entryDx=0;entryDy=0;" parent="bwINNmz4oi5txDyVYaUs-290" source="bwINNmz4oi5txDyVYaUs-293" target="bwINNmz4oi5txDyVYaUs-294" edge="1">
          <mxGeometry relative="1" as="geometry" />
        </mxCell>
        <mxCell id="bwINNmz4oi5txDyVYaUs-293" value="路由计算" style="rounded=1;whiteSpace=wrap;html=1;" parent="bwINNmz4oi5txDyVYaUs-290" vertex="1">
          <mxGeometry x="286" y="45" width="85" height="34" as="geometry" />
        </mxCell>
        <mxCell id="bwINNmz4oi5txDyVYaUs-294" value="策略容器" style="swimlane;whiteSpace=wrap;html=1;fillColor=#dae8fc;gradientColor=#7ea6e0;strokeColor=#6c8ebf;" parent="bwINNmz4oi5txDyVYaUs-290" vertex="1">
          <mxGeometry x="243.75" y="99" width="169.5" height="176" as="geometry" />
        </mxCell>
        <mxCell id="bwINNmz4oi5txDyVYaUs-302" value="handler" style="rounded=1;whiteSpace=wrap;html=1;" parent="bwINNmz4oi5txDyVYaUs-294" vertex="1">
          <mxGeometry x="6" y="40" width="70" height="33" as="geometry" />
        </mxCell>
        <mxCell id="bwINNmz4oi5txDyVYaUs-312" value="groovy" style="rounded=1;whiteSpace=wrap;html=1;" parent="bwINNmz4oi5txDyVYaUs-294" vertex="1">
          <mxGeometry x="90" y="40" width="70" height="33" as="geometry" />
        </mxCell>
        <mxCell id="bwINNmz4oi5txDyVYaUs-316" value="简单白名单" style="rounded=1;whiteSpace=wrap;html=1;fillColor=#f9f7ed;strokeColor=#36393d;" parent="bwINNmz4oi5txDyVYaUs-294" vertex="1">
          <mxGeometry x="6" y="80" width="70" height="33" as="geometry" />
        </mxCell>
        <mxCell id="bwINNmz4oi5txDyVYaUs-317" value="简单黑名单" style="rounded=1;whiteSpace=wrap;html=1;fillColor=#f9f7ed;strokeColor=#36393d;" parent="bwINNmz4oi5txDyVYaUs-294" vertex="1">
          <mxGeometry x="6" y="120" width="70" height="33" as="geometry" />
        </mxCell>
      </root>
    </mxGraphModel>
  </diagram>
  <diagram id="FSUNaja9ge6URztrj6Oh" name="第2页">
    <mxGraphModel dx="1578" dy="1060" grid="1" gridSize="10" guides="1" tooltips="1" connect="1" arrows="1" fold="1" page="1" pageScale="1" pageWidth="10000" pageHeight="10000" math="0" shadow="0">
      <root>
        <mxCell id="0" />
        <mxCell id="1" parent="0" />
        <mxCell id="bQoCnjX5owNQNQgvzlQn-2" style="edgeStyle=orthogonalEdgeStyle;rounded=0;orthogonalLoop=1;jettySize=auto;html=1;exitX=1;exitY=0.5;exitDx=0;exitDy=0;" parent="1" source="bQoCnjX5owNQNQgvzlQn-1" edge="1">
          <mxGeometry relative="1" as="geometry">
            <mxPoint x="500" y="215" as="targetPoint" />
          </mxGeometry>
        </mxCell>
        <mxCell id="bQoCnjX5owNQNQgvzlQn-1" value="" style="ellipse;whiteSpace=wrap;html=1;aspect=fixed;fillColor=#f5f5f5;fontColor=#333333;strokeColor=#666666;" parent="1" vertex="1">
          <mxGeometry x="400" y="200" width="30" height="30" as="geometry" />
        </mxCell>
        <mxCell id="bQoCnjX5owNQNQgvzlQn-5" style="edgeStyle=orthogonalEdgeStyle;rounded=0;orthogonalLoop=1;jettySize=auto;html=1;exitX=1;exitY=0.5;exitDx=0;exitDy=0;entryX=0;entryY=0.5;entryDx=0;entryDy=0;" parent="1" source="bQoCnjX5owNQNQgvzlQn-3" target="bQoCnjX5owNQNQgvzlQn-4" edge="1">
          <mxGeometry relative="1" as="geometry" />
        </mxCell>
        <mxCell id="bQoCnjX5owNQNQgvzlQn-3" value="读取数据" style="rounded=1;whiteSpace=wrap;html=1;" parent="1" vertex="1">
          <mxGeometry x="500" y="197.5" width="90" height="35" as="geometry" />
        </mxCell>
        <mxCell id="bQoCnjX5owNQNQgvzlQn-6" style="edgeStyle=orthogonalEdgeStyle;rounded=0;orthogonalLoop=1;jettySize=auto;html=1;exitX=1;exitY=0.5;exitDx=0;exitDy=0;" parent="1" source="bQoCnjX5owNQNQgvzlQn-4" edge="1">
          <mxGeometry relative="1" as="geometry">
            <mxPoint x="760" y="215" as="targetPoint" />
          </mxGeometry>
        </mxCell>
        <mxCell id="bQoCnjX5owNQNQgvzlQn-4" value="数据处理" style="rounded=1;whiteSpace=wrap;html=1;" parent="1" vertex="1">
          <mxGeometry x="630" y="197.5" width="90" height="35" as="geometry" />
        </mxCell>
        <mxCell id="bQoCnjX5owNQNQgvzlQn-8" style="edgeStyle=orthogonalEdgeStyle;rounded=0;orthogonalLoop=1;jettySize=auto;html=1;exitX=1;exitY=0.5;exitDx=0;exitDy=0;" parent="1" source="bQoCnjX5owNQNQgvzlQn-7" edge="1">
          <mxGeometry relative="1" as="geometry">
            <mxPoint x="890" y="215" as="targetPoint" />
          </mxGeometry>
        </mxCell>
        <mxCell id="bQoCnjX5owNQNQgvzlQn-7" value="数据写入" style="rounded=1;whiteSpace=wrap;html=1;" parent="1" vertex="1">
          <mxGeometry x="760" y="197.5" width="90" height="35" as="geometry" />
        </mxCell>
        <mxCell id="bQoCnjX5owNQNQgvzlQn-9" value="" style="ellipse;whiteSpace=wrap;html=1;aspect=fixed;fillColor=#121212;fontColor=#333333;strokeColor=#666666;" parent="1" vertex="1">
          <mxGeometry x="890" y="197.5" width="30" height="30" as="geometry" />
        </mxCell>
        <mxCell id="bQoCnjX5owNQNQgvzlQn-11" value="InterfaceDataManage" style="swimlane;fontStyle=1;align=center;verticalAlign=top;childLayout=stackLayout;horizontal=1;startSize=26;horizontalStack=0;resizeParent=1;resizeParentMax=0;resizeLast=0;collapsible=1;marginBottom=0;whiteSpace=wrap;html=1;" parent="1" vertex="1">
          <mxGeometry x="640" y="420" width="220" height="110" as="geometry" />
        </mxCell>
        <mxCell id="bQoCnjX5owNQNQgvzlQn-12" value="- SkywalkingDataService&lt;br&gt;- InterfaceDataService" style="text;strokeColor=none;fillColor=none;align=left;verticalAlign=top;spacingLeft=4;spacingRight=4;overflow=hidden;rotatable=0;points=[[0,0.5],[1,0.5]];portConstraint=eastwest;whiteSpace=wrap;html=1;" parent="bQoCnjX5owNQNQgvzlQn-11" vertex="1">
          <mxGeometry y="26" width="220" height="44" as="geometry" />
        </mxCell>
        <mxCell id="bQoCnjX5owNQNQgvzlQn-13" value="" style="line;strokeWidth=1;fillColor=none;align=left;verticalAlign=middle;spacingTop=-1;spacingLeft=3;spacingRight=3;rotatable=0;labelPosition=right;points=[];portConstraint=eastwest;strokeColor=inherit;" parent="bQoCnjX5owNQNQgvzlQn-11" vertex="1">
          <mxGeometry y="70" width="220" height="8" as="geometry" />
        </mxCell>
        <mxCell id="bQoCnjX5owNQNQgvzlQn-14" value="+dataCollect()&lt;br&gt;" style="text;strokeColor=none;fillColor=none;align=left;verticalAlign=top;spacingLeft=4;spacingRight=4;overflow=hidden;rotatable=0;points=[[0,0.5],[1,0.5]];portConstraint=eastwest;whiteSpace=wrap;html=1;" parent="bQoCnjX5owNQNQgvzlQn-11" vertex="1">
          <mxGeometry y="78" width="220" height="32" as="geometry" />
        </mxCell>
        <mxCell id="bQoCnjX5owNQNQgvzlQn-28" style="edgeStyle=orthogonalEdgeStyle;rounded=0;orthogonalLoop=1;jettySize=auto;html=1;exitX=0.5;exitY=0;exitDx=0;exitDy=0;entryX=0.505;entryY=1.031;entryDx=0;entryDy=0;entryPerimeter=0;" parent="1" source="bQoCnjX5owNQNQgvzlQn-23" target="bQoCnjX5owNQNQgvzlQn-14" edge="1">
          <mxGeometry relative="1" as="geometry" />
        </mxCell>
        <mxCell id="bQoCnjX5owNQNQgvzlQn-23" value="«interface»&lt;br&gt;SkywalkingDataService" style="html=1;whiteSpace=wrap;" parent="1" vertex="1">
          <mxGeometry x="490" y="610" width="170" height="60" as="geometry" />
        </mxCell>
        <mxCell id="bQoCnjX5owNQNQgvzlQn-29" style="edgeStyle=orthogonalEdgeStyle;rounded=0;orthogonalLoop=1;jettySize=auto;html=1;exitX=0.5;exitY=0;exitDx=0;exitDy=0;" parent="1" source="bQoCnjX5owNQNQgvzlQn-26" edge="1">
          <mxGeometry relative="1" as="geometry">
            <mxPoint x="750" y="530" as="targetPoint" />
          </mxGeometry>
        </mxCell>
        <mxCell id="bQoCnjX5owNQNQgvzlQn-26" value="«interface»&lt;br&gt;InterfaceDataService" style="html=1;whiteSpace=wrap;" parent="1" vertex="1">
          <mxGeometry x="820" y="610" width="170" height="60" as="geometry" />
        </mxCell>
        <mxCell id="bQoCnjX5owNQNQgvzlQn-30" value="SkywalkingDataServiceImpl" style="swimlane;fontStyle=1;align=center;verticalAlign=top;childLayout=stackLayout;horizontal=1;startSize=26;horizontalStack=0;resizeParent=1;resizeParentMax=0;resizeLast=0;collapsible=1;marginBottom=0;whiteSpace=wrap;html=1;" parent="1" vertex="1">
          <mxGeometry x="450" y="710" width="250" height="80" as="geometry" />
        </mxCell>
        <mxCell id="bQoCnjX5owNQNQgvzlQn-33" value="+ getEsData():List&amp;lt;JSONObject&amp;gt;&lt;br&gt;+ processData(List&amp;lt;JSONObject&amp;gt;: LIst&amp;lt;TbRequestAnalysis&amp;gt;" style="text;strokeColor=none;fillColor=none;align=left;verticalAlign=top;spacingLeft=4;spacingRight=4;overflow=hidden;rotatable=0;points=[[0,0.5],[1,0.5]];portConstraint=eastwest;whiteSpace=wrap;html=1;" parent="bQoCnjX5owNQNQgvzlQn-30" vertex="1">
          <mxGeometry y="26" width="250" height="54" as="geometry" />
        </mxCell>
        <mxCell id="bQoCnjX5owNQNQgvzlQn-34" value="" style="endArrow=block;dashed=1;endFill=0;endSize=12;html=1;rounded=0;entryX=0.5;entryY=1;entryDx=0;entryDy=0;exitX=0.5;exitY=0;exitDx=0;exitDy=0;" parent="1" source="bQoCnjX5owNQNQgvzlQn-30" target="bQoCnjX5owNQNQgvzlQn-23" edge="1">
          <mxGeometry width="160" relative="1" as="geometry">
            <mxPoint x="250" y="820" as="sourcePoint" />
            <mxPoint x="410" y="820" as="targetPoint" />
          </mxGeometry>
        </mxCell>
        <mxCell id="bQoCnjX5owNQNQgvzlQn-35" value="InterfaceDataServiceImpl" style="swimlane;fontStyle=1;align=center;verticalAlign=top;childLayout=stackLayout;horizontal=1;startSize=26;horizontalStack=0;resizeParent=1;resizeParentMax=0;resizeLast=0;collapsible=1;marginBottom=0;whiteSpace=wrap;html=1;" parent="1" vertex="1">
          <mxGeometry x="795" y="710" width="220" height="60" as="geometry" />
        </mxCell>
        <mxCell id="bQoCnjX5owNQNQgvzlQn-38" value="+ saveInterfaceData:(List&amp;lt;TbRequestAnalysis&amp;gt;)" style="text;strokeColor=none;fillColor=none;align=left;verticalAlign=top;spacingLeft=4;spacingRight=4;overflow=hidden;rotatable=0;points=[[0,0.5],[1,0.5]];portConstraint=eastwest;whiteSpace=wrap;html=1;" parent="bQoCnjX5owNQNQgvzlQn-35" vertex="1">
          <mxGeometry y="26" width="220" height="34" as="geometry" />
        </mxCell>
        <mxCell id="bQoCnjX5owNQNQgvzlQn-39" value="" style="endArrow=block;dashed=1;endFill=0;endSize=12;html=1;rounded=0;entryX=0.5;entryY=1;entryDx=0;entryDy=0;exitX=0.5;exitY=0;exitDx=0;exitDy=0;" parent="1" source="bQoCnjX5owNQNQgvzlQn-35" edge="1">
          <mxGeometry width="160" relative="1" as="geometry">
            <mxPoint x="904.5" y="710" as="sourcePoint" />
            <mxPoint x="904.5" y="670" as="targetPoint" />
          </mxGeometry>
        </mxCell>
        <mxCell id="bQoCnjX5owNQNQgvzlQn-40" value="" style="ellipse;html=1;shape=startState;fillColor=#000000;strokeColor=#ff0000;" parent="1" vertex="1">
          <mxGeometry x="1230" y="530" width="30" height="30" as="geometry" />
        </mxCell>
        <mxCell id="bQoCnjX5owNQNQgvzlQn-41" value="" style="edgeStyle=orthogonalEdgeStyle;html=1;verticalAlign=bottom;endArrow=open;endSize=8;strokeColor=#ff0000;rounded=0;" parent="1" source="bQoCnjX5owNQNQgvzlQn-40" edge="1">
          <mxGeometry relative="1" as="geometry">
            <mxPoint x="1310" y="545" as="targetPoint" />
          </mxGeometry>
        </mxCell>
        <mxCell id="bQoCnjX5owNQNQgvzlQn-45" style="edgeStyle=orthogonalEdgeStyle;rounded=0;orthogonalLoop=1;jettySize=auto;html=1;exitX=1;exitY=0.5;exitDx=0;exitDy=0;entryX=0;entryY=0.5;entryDx=0;entryDy=0;" parent="1" source="bQoCnjX5owNQNQgvzlQn-42" target="bQoCnjX5owNQNQgvzlQn-43" edge="1">
          <mxGeometry relative="1" as="geometry" />
        </mxCell>
        <mxCell id="bQoCnjX5owNQNQgvzlQn-42" value="INIT" style="rounded=1;whiteSpace=wrap;html=1;" parent="1" vertex="1">
          <mxGeometry x="1310" y="527.5" width="90" height="35" as="geometry" />
        </mxCell>
        <mxCell id="bQoCnjX5owNQNQgvzlQn-46" style="edgeStyle=orthogonalEdgeStyle;rounded=0;orthogonalLoop=1;jettySize=auto;html=1;exitX=1;exitY=0.5;exitDx=0;exitDy=0;entryX=0;entryY=0.5;entryDx=0;entryDy=0;" parent="1" source="bQoCnjX5owNQNQgvzlQn-43" target="bQoCnjX5owNQNQgvzlQn-44" edge="1">
          <mxGeometry relative="1" as="geometry" />
        </mxCell>
        <mxCell id="bQoCnjX5owNQNQgvzlQn-50" style="edgeStyle=orthogonalEdgeStyle;rounded=0;orthogonalLoop=1;jettySize=auto;html=1;exitX=0.5;exitY=1;exitDx=0;exitDy=0;entryX=0.5;entryY=1;entryDx=0;entryDy=0;" parent="1" source="bQoCnjX5owNQNQgvzlQn-43" target="bQoCnjX5owNQNQgvzlQn-42" edge="1">
          <mxGeometry relative="1" as="geometry">
            <Array as="points">
              <mxPoint x="1495" y="610" />
              <mxPoint x="1355" y="610" />
            </Array>
          </mxGeometry>
        </mxCell>
        <mxCell id="bQoCnjX5owNQNQgvzlQn-51" value="失败重试" style="edgeLabel;html=1;align=center;verticalAlign=middle;resizable=0;points=[];" parent="bQoCnjX5owNQNQgvzlQn-50" vertex="1" connectable="0">
          <mxGeometry x="0.1191" y="2" relative="1" as="geometry">
            <mxPoint as="offset" />
          </mxGeometry>
        </mxCell>
        <mxCell id="bQoCnjX5owNQNQgvzlQn-43" value="PROCESSING" style="rounded=1;whiteSpace=wrap;html=1;" parent="1" vertex="1">
          <mxGeometry x="1450" y="527.5" width="90" height="35" as="geometry" />
        </mxCell>
        <mxCell id="bQoCnjX5owNQNQgvzlQn-48" style="edgeStyle=orthogonalEdgeStyle;rounded=0;orthogonalLoop=1;jettySize=auto;html=1;exitX=1;exitY=0.5;exitDx=0;exitDy=0;" parent="1" source="bQoCnjX5owNQNQgvzlQn-44" edge="1">
          <mxGeometry relative="1" as="geometry">
            <mxPoint x="1730" y="545" as="targetPoint" />
          </mxGeometry>
        </mxCell>
        <mxCell id="bQoCnjX5owNQNQgvzlQn-44" value="SUCCESS" style="rounded=1;whiteSpace=wrap;html=1;" parent="1" vertex="1">
          <mxGeometry x="1590" y="527.5" width="90" height="35" as="geometry" />
        </mxCell>
        <mxCell id="bQoCnjX5owNQNQgvzlQn-49" value="" style="ellipse;html=1;shape=endState;fillColor=#000000;strokeColor=#ff0000;" parent="1" vertex="1">
          <mxGeometry x="1730" y="528" width="30" height="30" as="geometry" />
        </mxCell>
      </root>
    </mxGraphModel>
  </diagram>
  <diagram id="l45VwiwZnr8m7jmqM_RZ" name="第 3 页">
    <mxGraphModel dx="2052" dy="1378" grid="0" gridSize="10" guides="1" tooltips="1" connect="1" arrows="1" fold="1" page="1" pageScale="1" pageWidth="10000" pageHeight="10000" math="0" shadow="0">
      <root>
        <mxCell id="0" />
        <mxCell id="1" parent="0" />
        <mxCell id="khQOnUpI5AAjfoEpFiVH-5" style="rounded=0;orthogonalLoop=1;jettySize=auto;html=1;exitX=1;exitY=0.3333333333333333;exitDx=0;exitDy=0;exitPerimeter=0;entryX=0;entryY=0.5;entryDx=0;entryDy=0;" parent="1" source="khQOnUpI5AAjfoEpFiVH-1" target="khQOnUpI5AAjfoEpFiVH-4" edge="1">
          <mxGeometry relative="1" as="geometry" />
        </mxCell>
        <mxCell id="khQOnUpI5AAjfoEpFiVH-7" style="rounded=0;orthogonalLoop=1;jettySize=auto;html=1;exitX=1;exitY=0.3333333333333333;exitDx=0;exitDy=0;exitPerimeter=0;entryX=0;entryY=0.5;entryDx=0;entryDy=0;" parent="1" source="khQOnUpI5AAjfoEpFiVH-1" target="khQOnUpI5AAjfoEpFiVH-6" edge="1">
          <mxGeometry relative="1" as="geometry" />
        </mxCell>
        <mxCell id="khQOnUpI5AAjfoEpFiVH-12" style="rounded=0;orthogonalLoop=1;jettySize=auto;html=1;exitX=1;exitY=0.3333333333333333;exitDx=0;exitDy=0;exitPerimeter=0;entryX=0;entryY=0.5;entryDx=0;entryDy=0;" parent="1" source="khQOnUpI5AAjfoEpFiVH-1" target="khQOnUpI5AAjfoEpFiVH-10" edge="1">
          <mxGeometry relative="1" as="geometry" />
        </mxCell>
        <mxCell id="khQOnUpI5AAjfoEpFiVH-1" value="Actor" style="shape=umlActor;verticalLabelPosition=bottom;verticalAlign=top;html=1;outlineConnect=0;" parent="1" vertex="1">
          <mxGeometry x="180" y="300" width="20" height="50" as="geometry" />
        </mxCell>
        <mxCell id="khQOnUpI5AAjfoEpFiVH-2" value="模版配置" style="ellipse;whiteSpace=wrap;html=1;" parent="1" vertex="1">
          <mxGeometry x="490" y="220" width="100" height="50" as="geometry" />
        </mxCell>
        <mxCell id="khQOnUpI5AAjfoEpFiVH-3" value="会员票据配置" style="ellipse;whiteSpace=wrap;html=1;" parent="1" vertex="1">
          <mxGeometry x="490" y="280" width="100" height="50" as="geometry" />
        </mxCell>
        <mxCell id="khQOnUpI5AAjfoEpFiVH-4" value="模版管理" style="ellipse;whiteSpace=wrap;html=1;" parent="1" vertex="1">
          <mxGeometry x="290" y="230" width="100" height="50" as="geometry" />
        </mxCell>
        <mxCell id="khQOnUpI5AAjfoEpFiVH-6" value="会员配置管理" style="ellipse;whiteSpace=wrap;html=1;" parent="1" vertex="1">
          <mxGeometry x="290" y="290" width="100" height="50" as="geometry" />
        </mxCell>
        <mxCell id="khQOnUpI5AAjfoEpFiVH-8" value="include" style="endArrow=open;endSize=12;dashed=1;html=1;rounded=0;exitX=1;exitY=0.5;exitDx=0;exitDy=0;entryX=0;entryY=0.5;entryDx=0;entryDy=0;entryPerimeter=0;" parent="1" source="khQOnUpI5AAjfoEpFiVH-4" target="khQOnUpI5AAjfoEpFiVH-2" edge="1">
          <mxGeometry width="160" relative="1" as="geometry">
            <mxPoint x="380" y="320" as="sourcePoint" />
            <mxPoint x="540" y="320" as="targetPoint" />
          </mxGeometry>
        </mxCell>
        <mxCell id="khQOnUpI5AAjfoEpFiVH-9" value="include" style="endArrow=open;endSize=12;dashed=1;html=1;rounded=0;exitX=1;exitY=0.5;exitDx=0;exitDy=0;entryX=0;entryY=0.5;entryDx=0;entryDy=0;" parent="1" source="khQOnUpI5AAjfoEpFiVH-6" target="khQOnUpI5AAjfoEpFiVH-3" edge="1">
          <mxGeometry width="160" relative="1" as="geometry">
            <mxPoint x="400" y="265" as="sourcePoint" />
            <mxPoint x="500" y="255" as="targetPoint" />
          </mxGeometry>
        </mxCell>
        <mxCell id="khQOnUpI5AAjfoEpFiVH-10" value="开票" style="ellipse;whiteSpace=wrap;html=1;" parent="1" vertex="1">
          <mxGeometry x="290" y="350" width="100" height="50" as="geometry" />
        </mxCell>
        <mxCell id="khQOnUpI5AAjfoEpFiVH-13" value="创建计划" style="ellipse;whiteSpace=wrap;html=1;" parent="1" vertex="1">
          <mxGeometry x="490" y="340" width="100" height="40" as="geometry" />
        </mxCell>
        <mxCell id="khQOnUpI5AAjfoEpFiVH-14" value="执行计划" style="ellipse;whiteSpace=wrap;html=1;" parent="1" vertex="1">
          <mxGeometry x="490" y="390" width="100" height="40" as="geometry" />
        </mxCell>
        <mxCell id="khQOnUpI5AAjfoEpFiVH-16" value="打包" style="ellipse;whiteSpace=wrap;html=1;" parent="1" vertex="1">
          <mxGeometry x="490" y="440" width="100" height="40" as="geometry" />
        </mxCell>
        <mxCell id="khQOnUpI5AAjfoEpFiVH-17" value="邮件发送" style="ellipse;whiteSpace=wrap;html=1;" parent="1" vertex="1">
          <mxGeometry x="490" y="490" width="100" height="40" as="geometry" />
        </mxCell>
        <mxCell id="khQOnUpI5AAjfoEpFiVH-18" value="include" style="endArrow=open;endSize=12;dashed=1;html=1;rounded=0;exitX=1;exitY=0.5;exitDx=0;exitDy=0;entryX=0;entryY=0.5;entryDx=0;entryDy=0;" parent="1" source="khQOnUpI5AAjfoEpFiVH-10" target="khQOnUpI5AAjfoEpFiVH-13" edge="1">
          <mxGeometry width="160" relative="1" as="geometry">
            <mxPoint x="400" y="265" as="sourcePoint" />
            <mxPoint x="500" y="255" as="targetPoint" />
          </mxGeometry>
        </mxCell>
        <mxCell id="khQOnUpI5AAjfoEpFiVH-19" value="include" style="endArrow=open;endSize=12;dashed=1;html=1;rounded=0;exitX=1;exitY=0.5;exitDx=0;exitDy=0;entryX=0;entryY=0.5;entryDx=0;entryDy=0;" parent="1" source="khQOnUpI5AAjfoEpFiVH-10" target="khQOnUpI5AAjfoEpFiVH-14" edge="1">
          <mxGeometry width="160" relative="1" as="geometry">
            <mxPoint x="400" y="385" as="sourcePoint" />
            <mxPoint x="500" y="370" as="targetPoint" />
          </mxGeometry>
        </mxCell>
        <mxCell id="khQOnUpI5AAjfoEpFiVH-20" value="include" style="endArrow=open;endSize=12;dashed=1;html=1;rounded=0;entryX=0;entryY=0.5;entryDx=0;entryDy=0;" parent="1" target="khQOnUpI5AAjfoEpFiVH-16" edge="1">
          <mxGeometry width="160" relative="1" as="geometry">
            <mxPoint x="390" y="380" as="sourcePoint" />
            <mxPoint x="510" y="380" as="targetPoint" />
          </mxGeometry>
        </mxCell>
        <mxCell id="khQOnUpI5AAjfoEpFiVH-21" value="include" style="endArrow=open;endSize=12;dashed=1;html=1;rounded=0;entryX=0;entryY=0.5;entryDx=0;entryDy=0;" parent="1" target="khQOnUpI5AAjfoEpFiVH-17" edge="1">
          <mxGeometry width="160" relative="1" as="geometry">
            <mxPoint x="390" y="380" as="sourcePoint" />
            <mxPoint x="500" y="470" as="targetPoint" />
          </mxGeometry>
        </mxCell>
        <mxCell id="fPAQMHU-vyaXvItqJyTG-3" style="edgeStyle=orthogonalEdgeStyle;rounded=0;orthogonalLoop=1;jettySize=auto;html=1;exitX=1;exitY=0.5;exitDx=0;exitDy=0;entryX=0;entryY=0.5;entryDx=0;entryDy=0;" edge="1" parent="1" source="fPAQMHU-vyaXvItqJyTG-1" target="fPAQMHU-vyaXvItqJyTG-2">
          <mxGeometry relative="1" as="geometry" />
        </mxCell>
        <mxCell id="fPAQMHU-vyaXvItqJyTG-1" value="获取任务对应账单信息" style="rounded=1;whiteSpace=wrap;html=1;" vertex="1" parent="1">
          <mxGeometry x="1000" y="225" width="100" height="45" as="geometry" />
        </mxCell>
        <mxCell id="fPAQMHU-vyaXvItqJyTG-5" style="edgeStyle=orthogonalEdgeStyle;rounded=0;orthogonalLoop=1;jettySize=auto;html=1;exitX=1;exitY=0.5;exitDx=0;exitDy=0;" edge="1" parent="1" source="fPAQMHU-vyaXvItqJyTG-2" target="fPAQMHU-vyaXvItqJyTG-4">
          <mxGeometry relative="1" as="geometry" />
        </mxCell>
        <mxCell id="fPAQMHU-vyaXvItqJyTG-2" value="打包规则匹配，按维度将账单信息分组" style="rounded=1;whiteSpace=wrap;html=1;" vertex="1" parent="1">
          <mxGeometry x="1160" y="225" width="100" height="45" as="geometry" />
        </mxCell>
        <mxCell id="fPAQMHU-vyaXvItqJyTG-7" style="edgeStyle=orthogonalEdgeStyle;rounded=0;orthogonalLoop=1;jettySize=auto;html=1;exitX=1;exitY=0.5;exitDx=0;exitDy=0;" edge="1" parent="1" source="fPAQMHU-vyaXvItqJyTG-4" target="fPAQMHU-vyaXvItqJyTG-6">
          <mxGeometry relative="1" as="geometry" />
        </mxCell>
        <mxCell id="fPAQMHU-vyaXvItqJyTG-4" value="执行打包" style="rounded=1;whiteSpace=wrap;html=1;" vertex="1" parent="1">
          <mxGeometry x="1310" y="225" width="100" height="45" as="geometry" />
        </mxCell>
        <mxCell id="fPAQMHU-vyaXvItqJyTG-9" style="edgeStyle=orthogonalEdgeStyle;rounded=0;orthogonalLoop=1;jettySize=auto;html=1;exitX=1;exitY=0.5;exitDx=0;exitDy=0;entryX=0;entryY=0.5;entryDx=0;entryDy=0;" edge="1" parent="1" source="fPAQMHU-vyaXvItqJyTG-6" target="fPAQMHU-vyaXvItqJyTG-8">
          <mxGeometry relative="1" as="geometry" />
        </mxCell>
        <mxCell id="fPAQMHU-vyaXvItqJyTG-6" value="文件上传" style="rounded=1;whiteSpace=wrap;html=1;" vertex="1" parent="1">
          <mxGeometry x="1450" y="225" width="100" height="45" as="geometry" />
        </mxCell>
        <mxCell id="fPAQMHU-vyaXvItqJyTG-8" value="邮件发送" style="rounded=1;whiteSpace=wrap;html=1;" vertex="1" parent="1">
          <mxGeometry x="1600" y="225" width="100" height="45" as="geometry" />
        </mxCell>
        <mxCell id="fPAQMHU-vyaXvItqJyTG-11" style="edgeStyle=orthogonalEdgeStyle;rounded=0;orthogonalLoop=1;jettySize=auto;html=1;exitX=1;exitY=0.5;exitDx=0;exitDy=0;" edge="1" parent="1" source="fPAQMHU-vyaXvItqJyTG-10" target="fPAQMHU-vyaXvItqJyTG-1">
          <mxGeometry relative="1" as="geometry" />
        </mxCell>
        <mxCell id="fPAQMHU-vyaXvItqJyTG-10" value="获取打包任务" style="rounded=1;whiteSpace=wrap;html=1;" vertex="1" parent="1">
          <mxGeometry x="850" y="225" width="100" height="45" as="geometry" />
        </mxCell>
        <mxCell id="N6aCNCb_n-klRn1t7RWn-15" value="" style="group" vertex="1" connectable="0" parent="1">
          <mxGeometry x="850" y="320" width="805" height="40" as="geometry" />
        </mxCell>
        <mxCell id="N6aCNCb_n-klRn1t7RWn-2" value="" style="ellipse;html=1;shape=endState;fillColor=#000000;strokeColor=#ff0000;" vertex="1" parent="N6aCNCb_n-klRn1t7RWn-15">
          <mxGeometry x="775" y="5" width="30" height="30" as="geometry" />
        </mxCell>
        <mxCell id="N6aCNCb_n-klRn1t7RWn-3" value="" style="ellipse;html=1;shape=startState;fillColor=#000000;strokeColor=#ff0000;" vertex="1" parent="N6aCNCb_n-klRn1t7RWn-15">
          <mxGeometry y="5" width="30" height="30" as="geometry" />
        </mxCell>
        <mxCell id="N6aCNCb_n-klRn1t7RWn-4" value="" style="edgeStyle=orthogonalEdgeStyle;html=1;verticalAlign=bottom;endArrow=open;endSize=8;strokeColor=#ff0000;rounded=0;" edge="1" source="N6aCNCb_n-klRn1t7RWn-3" parent="N6aCNCb_n-klRn1t7RWn-15">
          <mxGeometry relative="1" as="geometry">
            <mxPoint x="90" y="20" as="targetPoint" />
          </mxGeometry>
        </mxCell>
        <mxCell id="N6aCNCb_n-klRn1t7RWn-5" value="读取开票配置" style="rounded=1;whiteSpace=wrap;html=1;strokeColor=#0F8B8D;fontColor=#143642;fillColor=#FAE5C7;" vertex="1" parent="N6aCNCb_n-klRn1t7RWn-15">
          <mxGeometry x="90" width="100" height="40" as="geometry" />
        </mxCell>
        <mxCell id="N6aCNCb_n-klRn1t7RWn-6" value="创建计划" style="rounded=1;whiteSpace=wrap;html=1;strokeColor=#0F8B8D;fontColor=#143642;fillColor=#FAE5C7;" vertex="1" parent="N6aCNCb_n-klRn1t7RWn-15">
          <mxGeometry x="230" width="100" height="40" as="geometry" />
        </mxCell>
        <mxCell id="N6aCNCb_n-klRn1t7RWn-7" style="edgeStyle=orthogonalEdgeStyle;rounded=0;orthogonalLoop=1;jettySize=auto;html=1;exitX=1;exitY=0.5;exitDx=0;exitDy=0;entryX=0;entryY=0.5;entryDx=0;entryDy=0;" edge="1" parent="N6aCNCb_n-klRn1t7RWn-15" source="N6aCNCb_n-klRn1t7RWn-5" target="N6aCNCb_n-klRn1t7RWn-6">
          <mxGeometry relative="1" as="geometry" />
        </mxCell>
        <mxCell id="N6aCNCb_n-klRn1t7RWn-8" value="执行计划" style="rounded=1;whiteSpace=wrap;html=1;strokeColor=#0F8B8D;fontColor=#143642;fillColor=#FAE5C7;" vertex="1" parent="N6aCNCb_n-klRn1t7RWn-15">
          <mxGeometry x="370" width="100" height="40" as="geometry" />
        </mxCell>
        <mxCell id="N6aCNCb_n-klRn1t7RWn-9" style="edgeStyle=orthogonalEdgeStyle;rounded=0;orthogonalLoop=1;jettySize=auto;html=1;exitX=1;exitY=0.5;exitDx=0;exitDy=0;entryX=0;entryY=0.5;entryDx=0;entryDy=0;" edge="1" parent="N6aCNCb_n-klRn1t7RWn-15" source="N6aCNCb_n-klRn1t7RWn-6" target="N6aCNCb_n-klRn1t7RWn-8">
          <mxGeometry relative="1" as="geometry" />
        </mxCell>
        <mxCell id="N6aCNCb_n-klRn1t7RWn-10" value="打包" style="rounded=1;whiteSpace=wrap;html=1;strokeColor=#0F8B8D;fontColor=#143642;fillColor=#FAE5C7;" vertex="1" parent="N6aCNCb_n-klRn1t7RWn-15">
          <mxGeometry x="500" width="100" height="40" as="geometry" />
        </mxCell>
        <mxCell id="N6aCNCb_n-klRn1t7RWn-11" style="edgeStyle=orthogonalEdgeStyle;rounded=0;orthogonalLoop=1;jettySize=auto;html=1;exitX=1;exitY=0.5;exitDx=0;exitDy=0;entryX=0;entryY=0.5;entryDx=0;entryDy=0;" edge="1" parent="N6aCNCb_n-klRn1t7RWn-15" source="N6aCNCb_n-klRn1t7RWn-8" target="N6aCNCb_n-klRn1t7RWn-10">
          <mxGeometry relative="1" as="geometry" />
        </mxCell>
        <mxCell id="N6aCNCb_n-klRn1t7RWn-14" style="edgeStyle=orthogonalEdgeStyle;rounded=0;orthogonalLoop=1;jettySize=auto;html=1;exitX=1;exitY=0.5;exitDx=0;exitDy=0;entryX=0;entryY=0.5;entryDx=0;entryDy=0;" edge="1" parent="N6aCNCb_n-klRn1t7RWn-15" source="N6aCNCb_n-klRn1t7RWn-12" target="N6aCNCb_n-klRn1t7RWn-2">
          <mxGeometry relative="1" as="geometry" />
        </mxCell>
        <mxCell id="N6aCNCb_n-klRn1t7RWn-12" value="邮件发送" style="rounded=1;whiteSpace=wrap;html=1;strokeColor=#0F8B8D;fontColor=#143642;fillColor=#FAE5C7;" vertex="1" parent="N6aCNCb_n-klRn1t7RWn-15">
          <mxGeometry x="630" width="100" height="40" as="geometry" />
        </mxCell>
        <mxCell id="N6aCNCb_n-klRn1t7RWn-13" style="edgeStyle=orthogonalEdgeStyle;rounded=0;orthogonalLoop=1;jettySize=auto;html=1;exitX=1;exitY=0.5;exitDx=0;exitDy=0;" edge="1" parent="N6aCNCb_n-klRn1t7RWn-15" source="N6aCNCb_n-klRn1t7RWn-10" target="N6aCNCb_n-klRn1t7RWn-12">
          <mxGeometry relative="1" as="geometry" />
        </mxCell>
        <mxCell id="N6aCNCb_n-klRn1t7RWn-16" value="billPlan Executor" style="swimlane;whiteSpace=wrap;html=1;fillColor=#d5e8d4;strokeColor=#82b366;" vertex="1" parent="1">
          <mxGeometry x="845" y="610" width="965" height="400" as="geometry" />
        </mxCell>
        <mxCell id="N6aCNCb_n-klRn1t7RWn-17" value="BillProcessHandler" style="rounded=1;whiteSpace=wrap;html=1;fillColor=#d5e8d4;strokeColor=#82b366;" vertex="1" parent="N6aCNCb_n-klRn1t7RWn-16">
          <mxGeometry x="405" y="40" width="110" height="40" as="geometry" />
        </mxCell>
        <mxCell id="N6aCNCb_n-klRn1t7RWn-21" style="edgeStyle=orthogonalEdgeStyle;rounded=0;orthogonalLoop=1;jettySize=auto;html=1;exitX=0.5;exitY=0;exitDx=0;exitDy=0;entryX=0.5;entryY=1;entryDx=0;entryDy=0;" edge="1" parent="N6aCNCb_n-klRn1t7RWn-16" source="N6aCNCb_n-klRn1t7RWn-20" target="N6aCNCb_n-klRn1t7RWn-17">
          <mxGeometry relative="1" as="geometry" />
        </mxCell>
        <mxCell id="N6aCNCb_n-klRn1t7RWn-20" value="AbstractProcessHandler" style="rounded=1;whiteSpace=wrap;html=1;fillColor=#d5e8d4;strokeColor=#82b366;" vertex="1" parent="N6aCNCb_n-klRn1t7RWn-16">
          <mxGeometry x="390" y="110" width="140" height="40" as="geometry" />
        </mxCell>
        <mxCell id="N6aCNCb_n-klRn1t7RWn-26" style="edgeStyle=orthogonalEdgeStyle;rounded=0;orthogonalLoop=1;jettySize=auto;html=1;exitX=0.5;exitY=0;exitDx=0;exitDy=0;entryX=0.5;entryY=1;entryDx=0;entryDy=0;" edge="1" parent="N6aCNCb_n-klRn1t7RWn-16" source="N6aCNCb_n-klRn1t7RWn-22" target="N6aCNCb_n-klRn1t7RWn-20">
          <mxGeometry relative="1" as="geometry" />
        </mxCell>
        <mxCell id="N6aCNCb_n-klRn1t7RWn-22" value="AbstractMemberProcessHandler" style="rounded=1;whiteSpace=wrap;html=1;fillColor=#d5e8d4;strokeColor=#82b366;" vertex="1" parent="N6aCNCb_n-klRn1t7RWn-16">
          <mxGeometry x="20" y="190" width="190" height="40" as="geometry" />
        </mxCell>
        <mxCell id="N6aCNCb_n-klRn1t7RWn-27" style="edgeStyle=orthogonalEdgeStyle;rounded=0;orthogonalLoop=1;jettySize=auto;html=1;exitX=0.5;exitY=0;exitDx=0;exitDy=0;entryX=0.5;entryY=1;entryDx=0;entryDy=0;" edge="1" parent="N6aCNCb_n-klRn1t7RWn-16" source="N6aCNCb_n-klRn1t7RWn-23" target="N6aCNCb_n-klRn1t7RWn-20">
          <mxGeometry relative="1" as="geometry" />
        </mxCell>
        <mxCell id="N6aCNCb_n-klRn1t7RWn-23" value="AbstractMerchantProcessHandler" style="rounded=1;whiteSpace=wrap;html=1;fillColor=#d5e8d4;strokeColor=#82b366;" vertex="1" parent="N6aCNCb_n-klRn1t7RWn-16">
          <mxGeometry x="230" y="190" width="190" height="40" as="geometry" />
        </mxCell>
        <mxCell id="N6aCNCb_n-klRn1t7RWn-28" style="edgeStyle=orthogonalEdgeStyle;rounded=0;orthogonalLoop=1;jettySize=auto;html=1;exitX=0.5;exitY=0;exitDx=0;exitDy=0;entryX=0.5;entryY=1;entryDx=0;entryDy=0;" edge="1" parent="N6aCNCb_n-klRn1t7RWn-16" source="N6aCNCb_n-klRn1t7RWn-24" target="N6aCNCb_n-klRn1t7RWn-20">
          <mxGeometry relative="1" as="geometry" />
        </mxCell>
        <mxCell id="N6aCNCb_n-klRn1t7RWn-24" value="AbstractMerchantGroupProcessHandler" style="rounded=1;whiteSpace=wrap;html=1;fillColor=#d5e8d4;strokeColor=#82b366;" vertex="1" parent="N6aCNCb_n-klRn1t7RWn-16">
          <mxGeometry x="450" y="190" width="230" height="40" as="geometry" />
        </mxCell>
        <mxCell id="N6aCNCb_n-klRn1t7RWn-29" style="edgeStyle=orthogonalEdgeStyle;rounded=0;orthogonalLoop=1;jettySize=auto;html=1;exitX=0.5;exitY=0;exitDx=0;exitDy=0;entryX=0.5;entryY=1;entryDx=0;entryDy=0;" edge="1" parent="N6aCNCb_n-klRn1t7RWn-16" source="N6aCNCb_n-klRn1t7RWn-25" target="N6aCNCb_n-klRn1t7RWn-20">
          <mxGeometry relative="1" as="geometry" />
        </mxCell>
        <mxCell id="N6aCNCb_n-klRn1t7RWn-25" value="AbstractInvoiceProcessHandler" style="rounded=1;whiteSpace=wrap;html=1;fillColor=#f8cecc;strokeColor=#b85450;" vertex="1" parent="N6aCNCb_n-klRn1t7RWn-16">
          <mxGeometry x="710" y="190" width="230" height="40" as="geometry" />
        </mxCell>
        <mxCell id="N6aCNCb_n-klRn1t7RWn-31" style="edgeStyle=orthogonalEdgeStyle;rounded=0;orthogonalLoop=1;jettySize=auto;html=1;exitX=0.5;exitY=0;exitDx=0;exitDy=0;entryX=0.5;entryY=1;entryDx=0;entryDy=0;" edge="1" parent="N6aCNCb_n-klRn1t7RWn-16" source="N6aCNCb_n-klRn1t7RWn-30" target="N6aCNCb_n-klRn1t7RWn-25">
          <mxGeometry relative="1" as="geometry" />
        </mxCell>
        <mxCell id="N6aCNCb_n-klRn1t7RWn-30" value="DefaultInvoiceProcessHandler" style="rounded=1;whiteSpace=wrap;html=1;fillColor=#f8cecc;strokeColor=#b85450;" vertex="1" parent="N6aCNCb_n-klRn1t7RWn-16">
          <mxGeometry x="710" y="260" width="230" height="40" as="geometry" />
        </mxCell>
        <mxCell id="N6aCNCb_n-klRn1t7RWn-33" style="edgeStyle=orthogonalEdgeStyle;rounded=0;orthogonalLoop=1;jettySize=auto;html=1;exitX=0.5;exitY=0;exitDx=0;exitDy=0;entryX=0.5;entryY=1;entryDx=0;entryDy=0;" edge="1" parent="N6aCNCb_n-klRn1t7RWn-16" source="N6aCNCb_n-klRn1t7RWn-32" target="N6aCNCb_n-klRn1t7RWn-23">
          <mxGeometry relative="1" as="geometry" />
        </mxCell>
        <mxCell id="N6aCNCb_n-klRn1t7RWn-32" value="DefaultProcessHandler" style="rounded=1;whiteSpace=wrap;html=1;fillColor=#d5e8d4;strokeColor=#82b366;" vertex="1" parent="N6aCNCb_n-klRn1t7RWn-16">
          <mxGeometry x="230" y="250" width="190" height="40" as="geometry" />
        </mxCell>
        <mxCell id="N6aCNCb_n-klRn1t7RWn-34" value="PayInV1Handler" style="rounded=1;whiteSpace=wrap;html=1;fillColor=#d5e8d4;strokeColor=#82b366;" vertex="1" parent="N6aCNCb_n-klRn1t7RWn-16">
          <mxGeometry x="230" y="300" width="190" height="40" as="geometry" />
        </mxCell>
        <mxCell id="N6aCNCb_n-klRn1t7RWn-35" value=".........." style="rounded=1;whiteSpace=wrap;html=1;fillColor=#d5e8d4;strokeColor=#82b366;" vertex="1" parent="N6aCNCb_n-klRn1t7RWn-16">
          <mxGeometry x="230" y="350" width="190" height="40" as="geometry" />
        </mxCell>
        <mxCell id="N6aCNCb_n-klRn1t7RWn-37" style="edgeStyle=orthogonalEdgeStyle;rounded=0;orthogonalLoop=1;jettySize=auto;html=1;exitX=0.5;exitY=0;exitDx=0;exitDy=0;" edge="1" parent="N6aCNCb_n-klRn1t7RWn-16" source="N6aCNCb_n-klRn1t7RWn-36" target="N6aCNCb_n-klRn1t7RWn-22">
          <mxGeometry relative="1" as="geometry" />
        </mxCell>
        <mxCell id="N6aCNCb_n-klRn1t7RWn-36" value="DefaultMemberProcessHandler" style="rounded=1;whiteSpace=wrap;html=1;fillColor=#d5e8d4;strokeColor=#82b366;" vertex="1" parent="N6aCNCb_n-klRn1t7RWn-16">
          <mxGeometry x="20" y="250" width="190" height="40" as="geometry" />
        </mxCell>
        <mxCell id="N6aCNCb_n-klRn1t7RWn-38" value="BillPackingManage" style="swimlane;whiteSpace=wrap;html=1;fillColor=#d5e8d4;strokeColor=#82b366;" vertex="1" parent="1">
          <mxGeometry x="1830" y="610" width="550" height="310" as="geometry" />
        </mxCell>
        <mxCell id="N6aCNCb_n-klRn1t7RWn-39" value="EmailStrategy" style="rounded=1;whiteSpace=wrap;html=1;fillColor=#d5e8d4;strokeColor=#82b366;" vertex="1" parent="N6aCNCb_n-klRn1t7RWn-38">
          <mxGeometry x="215" y="50" width="125" height="40" as="geometry" />
        </mxCell>
        <mxCell id="N6aCNCb_n-klRn1t7RWn-41" style="edgeStyle=orthogonalEdgeStyle;rounded=0;orthogonalLoop=1;jettySize=auto;html=1;exitX=0.5;exitY=0;exitDx=0;exitDy=0;entryX=0.5;entryY=1;entryDx=0;entryDy=0;" edge="1" parent="N6aCNCb_n-klRn1t7RWn-38" source="N6aCNCb_n-klRn1t7RWn-40" target="N6aCNCb_n-klRn1t7RWn-39">
          <mxGeometry relative="1" as="geometry" />
        </mxCell>
        <mxCell id="N6aCNCb_n-klRn1t7RWn-40" value="AbstractEmailHandler" style="rounded=1;whiteSpace=wrap;html=1;fillColor=#d5e8d4;strokeColor=#82b366;" vertex="1" parent="N6aCNCb_n-klRn1t7RWn-38">
          <mxGeometry x="215" y="120" width="125" height="40" as="geometry" />
        </mxCell>
        <mxCell id="N6aCNCb_n-klRn1t7RWn-43" style="edgeStyle=orthogonalEdgeStyle;rounded=0;orthogonalLoop=1;jettySize=auto;html=1;exitX=0.5;exitY=0;exitDx=0;exitDy=0;entryX=0.5;entryY=1;entryDx=0;entryDy=0;" edge="1" parent="N6aCNCb_n-klRn1t7RWn-38" source="N6aCNCb_n-klRn1t7RWn-42" target="N6aCNCb_n-klRn1t7RWn-40">
          <mxGeometry relative="1" as="geometry" />
        </mxCell>
        <mxCell id="N6aCNCb_n-klRn1t7RWn-42" value="SimpleEmailHandler" style="rounded=1;whiteSpace=wrap;html=1;fillColor=#d5e8d4;strokeColor=#82b366;" vertex="1" parent="N6aCNCb_n-klRn1t7RWn-38">
          <mxGeometry x="80" y="210" width="125" height="40" as="geometry" />
        </mxCell>
        <mxCell id="N6aCNCb_n-klRn1t7RWn-51" style="edgeStyle=orthogonalEdgeStyle;rounded=0;orthogonalLoop=1;jettySize=auto;html=1;exitX=0.5;exitY=0;exitDx=0;exitDy=0;entryX=0.5;entryY=1;entryDx=0;entryDy=0;" edge="1" parent="N6aCNCb_n-klRn1t7RWn-38" source="N6aCNCb_n-klRn1t7RWn-50" target="N6aCNCb_n-klRn1t7RWn-40">
          <mxGeometry relative="1" as="geometry" />
        </mxCell>
        <mxCell id="N6aCNCb_n-klRn1t7RWn-50" value="MerchantDimensionEmailHandler" style="rounded=1;whiteSpace=wrap;html=1;fillColor=#f8cecc;strokeColor=#b85450;" vertex="1" parent="N6aCNCb_n-klRn1t7RWn-38">
          <mxGeometry x="310" y="210" width="200" height="40" as="geometry" />
        </mxCell>
        <mxCell id="2pUBlpGW6T0XavW3x3YP-1" value="billPlan Executor" style="swimlane;whiteSpace=wrap;html=1;fillColor=#d5e8d4;strokeColor=#82b366;" vertex="1" parent="1">
          <mxGeometry x="938" y="1142" width="692" height="422" as="geometry" />
        </mxCell>
        <mxCell id="2pUBlpGW6T0XavW3x3YP-21" value="BillPlanProcessHandler" style="swimlane;whiteSpace=wrap;html=1;fillColor=#dae8fc;strokeColor=#6c8ebf;" vertex="1" parent="2pUBlpGW6T0XavW3x3YP-1">
          <mxGeometry x="51" y="47" width="590.5" height="115" as="geometry" />
        </mxCell>
        <mxCell id="2pUBlpGW6T0XavW3x3YP-24" style="edgeStyle=orthogonalEdgeStyle;rounded=0;orthogonalLoop=1;jettySize=auto;html=1;exitX=1;exitY=0.5;exitDx=0;exitDy=0;entryX=0;entryY=0.5;entryDx=0;entryDy=0;" edge="1" parent="2pUBlpGW6T0XavW3x3YP-21" source="2pUBlpGW6T0XavW3x3YP-22" target="2pUBlpGW6T0XavW3x3YP-23">
          <mxGeometry relative="1" as="geometry" />
        </mxCell>
        <mxCell id="2pUBlpGW6T0XavW3x3YP-22" value="DataLoader" style="rounded=1;whiteSpace=wrap;html=1;fillColor=#ffe6cc;strokeColor=#d79b00;" vertex="1" parent="2pUBlpGW6T0XavW3x3YP-21">
          <mxGeometry x="33" y="48" width="115" height="45" as="geometry" />
        </mxCell>
        <mxCell id="2pUBlpGW6T0XavW3x3YP-26" style="edgeStyle=orthogonalEdgeStyle;rounded=0;orthogonalLoop=1;jettySize=auto;html=1;exitX=1;exitY=0.5;exitDx=0;exitDy=0;entryX=0;entryY=0.5;entryDx=0;entryDy=0;" edge="1" parent="2pUBlpGW6T0XavW3x3YP-21" source="2pUBlpGW6T0XavW3x3YP-23" target="2pUBlpGW6T0XavW3x3YP-25">
          <mxGeometry relative="1" as="geometry" />
        </mxCell>
        <mxCell id="2pUBlpGW6T0XavW3x3YP-23" value="DataConverter" style="rounded=1;whiteSpace=wrap;html=1;fillColor=#ffe6cc;strokeColor=#d79b00;" vertex="1" parent="2pUBlpGW6T0XavW3x3YP-21">
          <mxGeometry x="234" y="48" width="115" height="45" as="geometry" />
        </mxCell>
        <mxCell id="2pUBlpGW6T0XavW3x3YP-25" value="FileWriter" style="rounded=1;whiteSpace=wrap;html=1;fillColor=#ffe6cc;strokeColor=#d79b00;" vertex="1" parent="2pUBlpGW6T0XavW3x3YP-21">
          <mxGeometry x="435" y="48" width="115" height="45" as="geometry" />
        </mxCell>
        <mxCell id="2pUBlpGW6T0XavW3x3YP-27" value="FileHandler" style="swimlane;whiteSpace=wrap;html=1;fillColor=#dae8fc;strokeColor=#6c8ebf;" vertex="1" parent="2pUBlpGW6T0XavW3x3YP-1">
          <mxGeometry x="445" y="178" width="200" height="200" as="geometry" />
        </mxCell>
        <mxCell id="2pUBlpGW6T0XavW3x3YP-28" value="CsvHandler" style="rounded=1;whiteSpace=wrap;html=1;fillColor=#ffe6cc;strokeColor=#d79b00;" vertex="1" parent="2pUBlpGW6T0XavW3x3YP-27">
          <mxGeometry x="34.75" y="33" width="133.5" height="38" as="geometry" />
        </mxCell>
        <mxCell id="2pUBlpGW6T0XavW3x3YP-29" value="ExcelHandler" style="rounded=1;whiteSpace=wrap;html=1;fillColor=#ffe6cc;strokeColor=#d79b00;" vertex="1" parent="2pUBlpGW6T0XavW3x3YP-27">
          <mxGeometry x="33.25" y="81" width="133.5" height="38" as="geometry" />
        </mxCell>
        <mxCell id="2pUBlpGW6T0XavW3x3YP-30" value="PdfHandler" style="rounded=1;whiteSpace=wrap;html=1;fillColor=#f8cecc;strokeColor=#b85450;" vertex="1" parent="2pUBlpGW6T0XavW3x3YP-27">
          <mxGeometry x="34.75" y="131" width="133.5" height="38" as="geometry" />
        </mxCell>
        <mxCell id="2pUBlpGW6T0XavW3x3YP-64" value="DataLoader" style="swimlane;whiteSpace=wrap;html=1;startSize=23;fillColor=#dae8fc;strokeColor=#6c8ebf;" vertex="1" parent="2pUBlpGW6T0XavW3x3YP-1">
          <mxGeometry x="51" y="178" width="180" height="197" as="geometry" />
        </mxCell>
        <mxCell id="2pUBlpGW6T0XavW3x3YP-66" value="JDBC" style="rounded=1;whiteSpace=wrap;html=1;fillColor=#ffe6cc;strokeColor=#d79b00;" vertex="1" parent="2pUBlpGW6T0XavW3x3YP-64">
          <mxGeometry x="30" y="33" width="115" height="45" as="geometry" />
        </mxCell>
        <mxCell id="2pUBlpGW6T0XavW3x3YP-67" value="DataWorks" style="rounded=1;whiteSpace=wrap;html=1;fillColor=#ffe6cc;strokeColor=#d79b00;" vertex="1" parent="2pUBlpGW6T0XavW3x3YP-64">
          <mxGeometry x="30" y="90" width="115" height="45" as="geometry" />
        </mxCell>
        <mxCell id="2pUBlpGW6T0XavW3x3YP-65" value="DataConverter" style="swimlane;whiteSpace=wrap;html=1;startSize=23;fillColor=#dae8fc;strokeColor=#6c8ebf;" vertex="1" parent="2pUBlpGW6T0XavW3x3YP-1">
          <mxGeometry x="248" y="179.5" width="180" height="197" as="geometry" />
        </mxCell>
        <mxCell id="2pUBlpGW6T0XavW3x3YP-68" value="AmountConverter" style="rounded=1;whiteSpace=wrap;html=1;fillColor=#ffe6cc;strokeColor=#d79b00;" vertex="1" parent="2pUBlpGW6T0XavW3x3YP-65">
          <mxGeometry x="34" y="31.5" width="115" height="45" as="geometry" />
        </mxCell>
        <mxCell id="2pUBlpGW6T0XavW3x3YP-69" value="EntityConverter" style="rounded=1;whiteSpace=wrap;html=1;fillColor=#ffe6cc;strokeColor=#d79b00;" vertex="1" parent="2pUBlpGW6T0XavW3x3YP-65">
          <mxGeometry x="34" y="84.5" width="115" height="45" as="geometry" />
        </mxCell>
        <mxCell id="2pUBlpGW6T0XavW3x3YP-70" value="............" style="rounded=1;whiteSpace=wrap;html=1;fillColor=#ffe6cc;strokeColor=#d79b00;" vertex="1" parent="2pUBlpGW6T0XavW3x3YP-65">
          <mxGeometry x="32.5" y="137.5" width="115" height="45" as="geometry" />
        </mxCell>
        <mxCell id="2pUBlpGW6T0XavW3x3YP-31" value="BillPackingManage" style="swimlane;whiteSpace=wrap;html=1;fillColor=#d5e8d4;strokeColor=#82b366;" vertex="1" parent="1">
          <mxGeometry x="1651" y="1142" width="648" height="245" as="geometry" />
        </mxCell>
        <mxCell id="2pUBlpGW6T0XavW3x3YP-41" style="edgeStyle=orthogonalEdgeStyle;rounded=0;orthogonalLoop=1;jettySize=auto;html=1;exitX=1;exitY=0.5;exitDx=0;exitDy=0;entryX=0;entryY=0.5;entryDx=0;entryDy=0;" edge="1" parent="2pUBlpGW6T0XavW3x3YP-31" source="2pUBlpGW6T0XavW3x3YP-39" target="2pUBlpGW6T0XavW3x3YP-40">
          <mxGeometry relative="1" as="geometry" />
        </mxCell>
        <mxCell id="2pUBlpGW6T0XavW3x3YP-39" value="packingTask" style="rounded=1;whiteSpace=wrap;html=1;fillColor=#ffe6cc;strokeColor=#d79b00;" vertex="1" parent="2pUBlpGW6T0XavW3x3YP-31">
          <mxGeometry x="23" y="63" width="108" height="42" as="geometry" />
        </mxCell>
        <mxCell id="2pUBlpGW6T0XavW3x3YP-43" style="edgeStyle=orthogonalEdgeStyle;rounded=0;orthogonalLoop=1;jettySize=auto;html=1;exitX=1;exitY=0.5;exitDx=0;exitDy=0;" edge="1" parent="2pUBlpGW6T0XavW3x3YP-31" source="2pUBlpGW6T0XavW3x3YP-40" target="2pUBlpGW6T0XavW3x3YP-42">
          <mxGeometry relative="1" as="geometry" />
        </mxCell>
        <mxCell id="2pUBlpGW6T0XavW3x3YP-40" value="packingRuleMatch" style="rounded=1;whiteSpace=wrap;html=1;fillColor=#ffe6cc;strokeColor=#d79b00;" vertex="1" parent="2pUBlpGW6T0XavW3x3YP-31">
          <mxGeometry x="189" y="63" width="108" height="42" as="geometry" />
        </mxCell>
        <mxCell id="2pUBlpGW6T0XavW3x3YP-47" style="edgeStyle=orthogonalEdgeStyle;rounded=0;orthogonalLoop=1;jettySize=auto;html=1;exitX=1;exitY=0.5;exitDx=0;exitDy=0;" edge="1" parent="2pUBlpGW6T0XavW3x3YP-31" source="2pUBlpGW6T0XavW3x3YP-42">
          <mxGeometry relative="1" as="geometry">
            <mxPoint x="497.7142857142858" y="83.90476190476193" as="targetPoint" />
          </mxGeometry>
        </mxCell>
        <mxCell id="2pUBlpGW6T0XavW3x3YP-42" value="UploadHandler" style="rounded=1;whiteSpace=wrap;html=1;fillColor=#ffe6cc;strokeColor=#d79b00;" vertex="1" parent="2pUBlpGW6T0XavW3x3YP-31">
          <mxGeometry x="351" y="63" width="108" height="42" as="geometry" />
        </mxCell>
        <mxCell id="2pUBlpGW6T0XavW3x3YP-46" style="edgeStyle=orthogonalEdgeStyle;rounded=0;orthogonalLoop=1;jettySize=auto;html=1;exitX=0.5;exitY=0;exitDx=0;exitDy=0;entryX=0.5;entryY=1;entryDx=0;entryDy=0;" edge="1" parent="2pUBlpGW6T0XavW3x3YP-31" source="2pUBlpGW6T0XavW3x3YP-44" target="2pUBlpGW6T0XavW3x3YP-42">
          <mxGeometry relative="1" as="geometry" />
        </mxCell>
        <mxCell id="2pUBlpGW6T0XavW3x3YP-44" value="SFTPHandler" style="rounded=1;whiteSpace=wrap;html=1;fillColor=#ffe6cc;strokeColor=#d79b00;" vertex="1" parent="2pUBlpGW6T0XavW3x3YP-31">
          <mxGeometry x="351" y="120" width="108" height="42" as="geometry" />
        </mxCell>
        <mxCell id="2pUBlpGW6T0XavW3x3YP-45" value="S3Handler" style="rounded=1;whiteSpace=wrap;html=1;fillColor=#ffe6cc;strokeColor=#d79b00;" vertex="1" parent="2pUBlpGW6T0XavW3x3YP-31">
          <mxGeometry x="351" y="174" width="108" height="42" as="geometry" />
        </mxCell>
        <mxCell id="2pUBlpGW6T0XavW3x3YP-48" value="EmailStrategy" style="rounded=1;whiteSpace=wrap;html=1;fillColor=#ffe6cc;strokeColor=#d79b00;" vertex="1" parent="2pUBlpGW6T0XavW3x3YP-31">
          <mxGeometry x="502" y="63" width="108" height="42" as="geometry" />
        </mxCell>
        <mxCell id="2pUBlpGW6T0XavW3x3YP-63" style="edgeStyle=orthogonalEdgeStyle;rounded=0;orthogonalLoop=1;jettySize=auto;html=1;exitX=0.5;exitY=0;exitDx=0;exitDy=0;entryX=0.5;entryY=1;entryDx=0;entryDy=0;" edge="1" parent="2pUBlpGW6T0XavW3x3YP-31" source="2pUBlpGW6T0XavW3x3YP-49" target="2pUBlpGW6T0XavW3x3YP-48">
          <mxGeometry relative="1" as="geometry" />
        </mxCell>
        <mxCell id="2pUBlpGW6T0XavW3x3YP-49" value="SimpleEmailStrategy" style="rounded=1;whiteSpace=wrap;html=1;fillColor=#ffe6cc;strokeColor=#d79b00;" vertex="1" parent="2pUBlpGW6T0XavW3x3YP-31">
          <mxGeometry x="502" y="121" width="118" height="41" as="geometry" />
        </mxCell>
        <mxCell id="2pUBlpGW6T0XavW3x3YP-62" value="MerchantEmailStrategy" style="rounded=1;whiteSpace=wrap;html=1;fillColor=#f8cecc;strokeColor=#b85450;" vertex="1" parent="2pUBlpGW6T0XavW3x3YP-31">
          <mxGeometry x="502" y="174" width="130" height="41" as="geometry" />
        </mxCell>
      </root>
    </mxGraphModel>
  </diagram>
</mxfile>
